<?xml version="1.0" encoding="utf-8"?>
<!-- Generator: Adobe Illustrator 15.0.0, SVG Export Plug-In  -->
<!DOCTYPE svg PUBLIC "-//W3C//DTD SVG 1.1//EN" "http://www.w3.org/Graphics/SVG/1.1/DTD/svg11.dtd" [
	<!ENTITY ns_flows "http://ns.adobe.com/Flows/1.0/">
]>
<svg version="1.1"
	 xmlns="http://www.w3.org/2000/svg" xmlns:xlink="http://www.w3.org/1999/xlink" xmlns:a="http://ns.adobe.com/AdobeSVGViewerExtensions/3.0/"
	 x="0px" y="0px" width="1366px" height="768px" viewBox="-318.108 1573.728 1366 768"
	 enable-background="new -318.108 1573.728 1366 768" xml:space="preserve">
<defs>
</defs>
<linearGradient id="SVGID_1_" gradientUnits="userSpaceOnUse" x1="864.166" y1="1148.1597" x2="2556.1289" y2="1148.1597">
	<stop  offset="0" style="stop-color:#009FE3"/>
	<stop  offset="0.0042" style="stop-color:#009CE1"/>
	<stop  offset="0.0479" style="stop-color:#0086C4"/>
	<stop  offset="0.0957" style="stop-color:#0070AA"/>
	<stop  offset="0.148" style="stop-color:#005C94"/>
	<stop  offset="0.2046" style="stop-color:#004C83"/>
	<stop  offset="0.2668" style="stop-color:#0C3E75"/>
	<stop  offset="0.3367" style="stop-color:#1E336B"/>
	<stop  offset="0.4175" style="stop-color:#242C64"/>
	<stop  offset="0.5162" style="stop-color:#27275F"/>
	<stop  offset="0.652" style="stop-color:#28245D"/>
	<stop  offset="1" style="stop-color:#29235C"/>
</linearGradient>
<path fill-rule="evenodd" clip-rule="evenodd" fill="url(#SVGID_1_)" d="M1470.295,2022.063
	C16.576,313.378,1572.6,1083.948,2052.793,274.615C2891.406-1138.829,2671.963,3434.492,1470.295,2022.063z"/>
<path fill-rule="evenodd" clip-rule="evenodd" fill="none" stroke="#FFFFFF" stroke-miterlimit="10" d="M123.49,1687.135
	c22.394,27.4,45.047,54.519,46.81,102.527c130.984,3.994,301.19,2.232,448.036,2.232c43.921,0,69.724-3.901,82.483,26.742
	c-1.245,50.453-8.014,94.913-13.371,147.081c-4.23,40.96,0.752,116.321-31.23,129.294c-22.725,9.258-76.937,2.255-106.992,2.255
	c-108.19,0-217.908,0-323.209,0c1.127,20.422,5.969,37.13,8.93,55.717c117.778,4.56,252.664,1.528,381.205,2.21
	c21.009,0.116,39.056-3.22,40.066,13.348c1.48,24.557-70.146,15.626-100.318,15.626c-113.267,0-236.591,1.833-343.23-2.185
	c-16.684-63.966-26.931-135.121-40.137-207.311c-9.635-52.827-17.248-106.475-26.741-160.5c-3.104-17.554-4.23-36.354-8.884-51.275
	c-5.358-16.967-18.893-32.006-28.998-46.787c-33.744-2.679-78.369,5.522-104.759-4.465c-2.961-3.596-4.841-19.646,2.208-20.069
	C36.143,1681.519,85.374,1689.862,123.49,1687.135z M188.137,1883.284c27.493,0,54.987,0,82.481,0c0-20.82,0-41.594,0-62.414
	c-31.207,0-62.461,0-93.62,0C180.311,1842.088,183.671,1863.192,188.137,1883.284z M299.617,1883.284
	c31.981-1.434,69.745,2.89,98.038-2.232c0-19.34,0-38.633,0-57.95c-28.293-5.122-66.057-0.822-98.038-2.231
	C299.617,1841.69,299.617,1862.463,299.617,1883.284z M426.63,1883.284c31.982,0,63.895,0,95.83,0c0-20.82,0-41.594,0-62.414
	c-31.936,0-63.848,0-95.83,0C426.63,1841.69,426.63,1862.463,426.63,1883.284z M553.69,1883.284c37.881,0,75.762,0,113.689,0
	c-2.162-21.079,7.097-41.57,2.209-57.996c-30.103-9.988-78.464-1.739-115.898-4.418C553.69,1841.69,553.69,1862.463,553.69,1883.284
	z M203.739,1974.672c22.277,0,44.602,0,66.879,0c0-20.069,0-40.138,0-60.205c-26.014,0-52.027,0-77.971,0
	C197.254,1933.643,199.697,1954.933,203.739,1974.672z M299.617,1974.672c32.663,0,65.375,0,98.038,0c0-20.069,0-40.138,0-60.205
	c-32.663,0-65.375,0-98.038,0C299.617,1934.535,299.617,1954.603,299.617,1974.672z M426.63,1974.672c31.982,0,63.895,0,95.83,0
	c0-20.069,0-40.138,0-60.205c-31.936,0-63.848,0-95.83,0C426.63,1934.535,426.63,1954.603,426.63,1974.672z M553.69,1974.672
	c34.168,0,68.383,0,102.527,0c3.947-18.354,5.122-39.455,6.697-60.205c-36.4,0-72.848,0-109.225,0
	C553.69,1934.535,553.69,1954.603,553.69,1974.672z M219.343,2068.27c17.107,0,34.191,0,51.275,0c0-20.773,0-41.594,0-62.414
	c-20.068,1.48-46.059-2.938-62.461,2.208C213.704,2026.37,216.288,2047.543,219.343,2068.27z M299.617,2068.27
	c31.981-1.41,69.745,2.89,98.038-2.232c0-20.068,0-40.09,0-60.182c-32.663,0-65.375,0-98.038,0
	C299.617,2026.676,299.617,2047.497,299.617,2068.27z M426.63,2068.27c31.982,0,63.895,0,95.83,0c0-20.773,0-41.594,0-62.414
	c-31.936,0-63.848,0-95.83,0C426.63,2026.676,426.63,2047.497,426.63,2068.27z M553.69,2068.27
	c29.938-1.27,65.093,2.678,91.365-2.232c7.566-15.439,6.769-39.314,8.93-60.182c-33.416,0-66.855,0-100.295,0
	C553.69,2026.676,553.69,2047.497,553.69,2068.27z"/>
<path fill="none" stroke="#FFFFFF" stroke-miterlimit="10" d="M325.442,2265.522c0,24.04-19.457,43.497-43.474,43.497
	c-23.993,0-43.45-19.457-43.45-43.497c0-23.969,19.457-43.427,43.45-43.427C305.985,2222.095,325.442,2241.553,325.442,2265.522z"/>
<path fill="none" stroke="#FFFFFF" stroke-miterlimit="10" d="M586.19,2265.522c0,24.04-19.435,43.497-43.427,43.497
	c-23.993,0-43.497-19.457-43.497-43.497c0-23.969,19.504-43.427,43.497-43.427C566.756,2222.095,586.19,2241.553,586.19,2265.522z"
	/>
</svg>
