<?xml version="1.0" encoding="utf-8"?>
<!-- Generator: Adobe Illustrator 15.0.0, SVG Export Plug-In  -->
<!DOCTYPE svg PUBLIC "-//W3C//DTD SVG 1.1//EN" "http://www.w3.org/Graphics/SVG/1.1/DTD/svg11.dtd" [
	<!ENTITY ns_flows "http://ns.adobe.com/Flows/1.0/">
]>
<svg version="1.1"
	 xmlns="http://www.w3.org/2000/svg" xmlns:xlink="http://www.w3.org/1999/xlink" xmlns:a="http://ns.adobe.com/AdobeSVGViewerExtensions/3.0/"
	 x="0px" y="0px" width="1366px" height="768px" viewBox="-1.656 1573.728 1366 768"
	 enable-background="new -1.656 1573.728 1366 768" xml:space="preserve">
<defs>
</defs>
<linearGradient id="SVGID_1_" gradientUnits="userSpaceOnUse" x1="1180.6182" y1="1148.1597" x2="2872.5811" y2="1148.1597">
	<stop  offset="0" style="stop-color:#009FE3"/>
	<stop  offset="0.0042" style="stop-color:#009CE1"/>
	<stop  offset="0.0479" style="stop-color:#0086C4"/>
	<stop  offset="0.0957" style="stop-color:#0070AA"/>
	<stop  offset="0.148" style="stop-color:#005C94"/>
	<stop  offset="0.2046" style="stop-color:#004C83"/>
	<stop  offset="0.2668" style="stop-color:#0C3E75"/>
	<stop  offset="0.3367" style="stop-color:#1E336B"/>
	<stop  offset="0.4175" style="stop-color:#242C64"/>
	<stop  offset="0.5162" style="stop-color:#27275F"/>
	<stop  offset="0.652" style="stop-color:#28245D"/>
	<stop  offset="1" style="stop-color:#29235C"/>
</linearGradient>
<path fill-rule="evenodd" clip-rule="evenodd" fill="url(#SVGID_1_)" d="M1786.747,2022.063
	C333.028,313.378,1889.052,1083.948,2369.245,274.615C3207.858-1138.829,2988.415,3434.492,1786.747,2022.063z"/>
<linearGradient id="SVGID_2_" gradientUnits="userSpaceOnUse" x1="3640.7666" y1="3956.6958" x2="4208.8555" y2="3956.6958" gradientTransform="matrix(-4.371139e-008 1 -1 -4.371139e-008 4203.0547 -1985.5251)">
	<stop  offset="0" style="stop-color:#662483"/>
	<stop  offset="0.0391" style="stop-color:#662F88"/>
	<stop  offset="0.1768" style="stop-color:#61539F"/>
	<stop  offset="0.3165" style="stop-color:#5970B4"/>
	<stop  offset="0.4556" style="stop-color:#4F86C6"/>
	<stop  offset="0.5938" style="stop-color:#4696D2"/>
	<stop  offset="0.7311" style="stop-color:#3EA1DA"/>
	<stop  offset="0.867" style="stop-color:#38A7DF"/>
	<stop  offset="1" style="stop-color:#36A9E1"/>
</linearGradient>
<path fill-rule="evenodd" clip-rule="evenodd" fill="url(#SVGID_2_)" d="M480.41,2089.837c-5.749-0.991-9.391,1.014-11.575,2.482
	c-0.628,0.423-1.885,0.302-2.48,0.827c-0.631,0.552-0.262,1.847-0.828,2.479c-1.975,2.205-3.097,5.63-5.786,6.614
	c-3.217,1.18-10.46,0-16.538,0H410.13c-5.898,0-13.242,1.142-17.366,0c-4.605-1.269-9.432-8.601-14.886-14.055
	c-13.75-13.752-25.101-25.105-37.208-37.21c-2.361-2.361-7.138-4.62-5.788-7.44c8.549-1.784,12.497,5.879,17.366,10.75
	c9.5,9.499,18.509,18.51,28.112,28.112c4.672,4.675,10.75,12.027,15.71,13.229c4.585,1.113,11.564,0,17.364,0
	c6.04,0,13.064,1.185,17.363,0c3.928-1.081,6.212-5.384,9.095-8.269c3.54-3.537,6.488-6.601,9.924-8.268
	c7.012,3.124,11.871,0.93,15.71-2.482c1.393-1.236,3.579-3.005,4.136-4.134c1.997-4.047,0.561-14.263-0.827-15.71
	c-1.478-1.545-2.188-2.87-4.137-4.135c-6.714-4.354-15.589-2.457-19.844,1.656c-5.871,5.675-5.959,12.561-1.652,20.67
	c-5.067,3.431-8.457,12.938-16.538,14.883c-3.128,0.753-8.849,0-14.056,0c-4.702,0-11.348,1.047-14.885,0
	c-0.279-0.082-4.793-3.115-4.96-3.309c-0.267-0.297,0.281-1.369,0-1.651c-0.276-0.277-1.383,0.274-1.653,0
	c-0.162-0.166-0.754-1.543-0.828-1.652c-0.564-0.854-1.032-0.97-1.652-1.654c-10.484-11.587-21.748-22.038-31.422-32.248
	c-1.613-1.704-5.465-2.907-4.134-5.788h14.884c3.319,2.152,3.167,6.726,5.788,9.094c2.118,1.918,7.028,4.135,10.748,4.135
	c9.693,0,17.428-9.688,14.884-20.67c-1.241-5.357-8.836-11.057-15.711-10.75c-4.422,0.194-8.466,3.423-10.749,5.789
	c-2.089,2.158-2.528,5.458-5.786,6.613c-2.868,1.015-9.637,0-14.884,0h-30.595c-5.429,0-11.813-1.085-15.711,0
	c-3.572,0.994-7.3,6.188-11.576,10.749c-7.882,8.404-15.192,15.192-23.152,23.154c-4.307,4.301-7.865,9.634-12.404,10.748
	c-4.756,1.164-10.17-0.173-14.055,0c-7.561,0.333-14.555,1.416-24.809,0.828c-2.119-6.94-7.374-14.988-12.4-17.366
	c-7.368-3.48-18.885-4.145-25.635-0.828c-4.531,2.229-8.733,7.266-10.75,10.75c-0.397,0.688-1.407,1.151-1.651,1.654
	c-0.655,1.344,0.401,4.969-2.482,4.962c-4.815,0.367-7.241-4.764-9.922-7.442c-14.806-14.808-29.541-29.543-43.824-43.822
	c-5.914-5.916-12.782-10.95-17.364-18.193c15.274-24.51-12.734-50.062-35.557-37.208c-6.459,3.642-9.072,9.955-13.229,17.365
	c-6.332-0.001-11.932-0.001-17.362-0.001c-5.777,0-12.414,1.362-17.364,0c-2.354-0.648-5.54-3.943-8.268-6.616
	c-1.379-1.348-2.703-2.681-4.02-4.008c0.002,1.375,0.01,2.751,0.01,4.127v12.47c2.676,2.67,5.311,5.045,7.315,5.604
	c5.02,1.396,13.223,0,19.846,0h19.843c1.96,1.739,1.943,5.06,3.309,7.439c2.227,3.882,5.324,6.32,8.269,8.271
	c7.853,5.196,18.704,7.21,28.116,1.652c20.06,18.86,42.836,42.838,62.84,62.843c3.412,3.411,6.794,6.888,9.922,8.27
	c2.332,1.028,5.563,1.574,8.271,1.652c3.694,12.018,12.948,20.837,26.456,20.674c14.082-0.173,21.521-10.005,26.462-20.674
	c23.427-0.311,45.315-0.826,67.803-0.826c5.467,0,11.78-1.085,15.708,0c2.32,0.639,5.834,4.181,9.098,7.44
	c15.157,15.158,26.952,26.953,41.343,41.346c3.831,3.829,12.567,15.199,17.363,16.536c6.449,1.793,18.608,0,24.808,0
	c7.856,0,18.08-1.853,24.809,0c3.705,1.021,7.215,5.565,9.92,8.27c3.119,3.119,6.379,6.241,8.267,9.923
	c-4.988,6.584-8.007,11.301-8.267,18.188c-0.484,12.793,8.963,23.904,17.362,26.46c9.606,2.924,20.5,0.056,25.634-4.134
	c3.125-2.547,4.477-4.195,6.616-8.268c2.448-4.662,4.545-11.127,3.306-18.19c-1.416-8.077-11.084-18.055-17.361-19.846
	c-4.556-1.3-9.612,1.15-15.713-0.826c-2.037-0.659-3.671-3.688-5.785-5.786c-2.282-2.265-4.73-3.906-6.618-5.79
	c-4.036-4.036-7.329-10.146-13.229-11.578c-7.228-1.749-16.575,0-23.979,0c-8.376,0-18.33,1.786-24.805,0
	c-2.438-0.672-5.923-4.268-9.096-7.44c-17.661-17.658-32.675-32.673-49.612-49.609c-3.152-3.154-5.88-7.519-8.271-8.271
	c-4.601-1.452-10.34,1.14-14.053,0c1.244-2.94,4.151-5.858,6.61-8.271c2.895-2.828,5.493-5.739,9.101-6.611
	c3.925-0.954,11.708-1.114,15.705,0c3.762,1.043,9.921,8.264,14.061,12.401c11.604,11.604,21.801,22.26,33.075,33.073
	c3.236,3.107,3.016,4.723,7.441,5.789c7.655,1.844,15.908,0,23.151,0h23.979c-6.005,12.188,3.063,23.134,11.576,23.98
	c2.367,0.234,6.861-0.635,9.095-1.654c3.54-1.618,6.449-5.998,7.442-9.096c3.608-11.255-4.764-20.841-16.537-19.846
	c-1.919,0.161-3.891,1.534-6.615,1.653c-1.424,0.062-3.022-0.771-4.961-0.827c-7.054-0.205-13.328,0-19.846,0
	c-9.617,0-19.894,1.581-25.633,0c-3.632-0.999-8.948-7.294-14.055-12.402c-9.714-9.711-17.195-17.193-26.462-26.461
	c-4.949-4.946-8.862-11.143-14.056-12.401c-4.57-1.108-17.102-0.983-20.673,0c-3.716,1.024-7.89,6.237-11.575,9.924
	c-3.749,3.746-7.021,9.495-11.577,10.748c-4.89,1.346-8.653-0.967-15.708,0c6.607-7.83,12.307-12.31,19.843-19.846
	c5.006-5.003,13.905-17.376,20.67-19.017c2.312-0.561,11.356-0.521,13.231,0c4.883,1.357,11.873,11.047,16.536,15.709
	c12.056,12.055,21.411,21.408,33.076,33.076c4.136,4.133,13.117,14.538,17.364,15.709c4.713,1.3,12.147,0,17.364,0h52.92
	c4.702,5.928,6.928,12.056,15.708,12.404c8.984,0.356,18.918-8.329,15.712-20.672
	C490.977,2095.871,484.234,2090.497,480.41,2089.837z"/>
<linearGradient id="SVGID_3_" gradientUnits="userSpaceOnUse" x1="3640.7666" y1="3905.7778" x2="4208.853" y2="3905.7778" gradientTransform="matrix(-4.371139e-008 1 -1 -4.371139e-008 4203.0547 -1985.5251)">
	<stop  offset="0" style="stop-color:#662483"/>
	<stop  offset="0.0391" style="stop-color:#662F88"/>
	<stop  offset="0.1768" style="stop-color:#61539F"/>
	<stop  offset="0.3165" style="stop-color:#5970B4"/>
	<stop  offset="0.4556" style="stop-color:#4F86C6"/>
	<stop  offset="0.5938" style="stop-color:#4696D2"/>
	<stop  offset="0.7311" style="stop-color:#3EA1DA"/>
	<stop  offset="0.867" style="stop-color:#38A7DF"/>
	<stop  offset="1" style="stop-color:#36A9E1"/>
</linearGradient>
<path fill-rule="evenodd" clip-rule="evenodd" fill="url(#SVGID_3_)" d="M582.942,2014.591c-4.956-4.146-11.854-7.641-19.02-8.265
	c-15.42-1.35-26.668,8.183-31.418,16.536c-2.018,3.547-2.17,6.857-4.963,9.922h-19.844c-6.347,0-14.387,1.732-20.676,0
	c-3.787-1.041-8.78-7.128-13.228-11.576c-9.641-9.644-15.647-16.477-24.807-25.632c-3.905-3.907-9.276-10.397-14.054-11.576
	c-5.638-1.392-13.094,0-19.846,0h-59.533c0.385-3.068,3.812-4.593,5.786-6.616c2.062-2.112,3.535-4.36,5.79-6.613
	c3.744-3.746,8.994-10.331,14.055-11.576c3.592-0.883,9.901,0,14.884,0h104.185c1.78,2.04,2.811,4.422,4.138,6.612
	c1.349,2.236,2.292,4.936,4.13,6.616c0.284,0.26,1.294-0.164,1.656,0c0.264,0.12,0.527,1.449,0.824,1.653
	c3,2.052,8.673,4.585,12.407,4.96c11.892,1.203,21.108-5.539,24.804-10.746c1.033-1.457,2.904-3.963,3.309-4.964
	c3.468-8.611,1.498-21.476-2.483-25.632c-1.992-2.081-3.817-4.527-6.612-5.786c-0.258-0.117-0.542-1.448-0.828-1.656
	c-5.475-3.933-17.769-5.723-24.807-2.481c-2.115,0.977-3.334,2.218-4.961,3.308c-3.433,2.298-3.799,2.271-5.786,4.964
	c-2.887,3.902-3.299,6.457-5.79,11.576h-55.4c13.171-12.979,28.871-30.342,42.998-43.826c2.879-2.747,4.004-4.132,7.441-4.96
	c7.125-1.717,16.57,0,24.805,0h25.637c2.182,1.149,2.301,3.319,3.304,4.96c3.419,5.58,8.356,10.613,16.536,10.75
	c6.188,0.105,13.596-4.253,15.715-7.44c2.428-3.662,4.978-9.438,4.133-15.712c-1.444-10.744-13.533-19.74-27.288-14.884
	c-2.547,0.902-5.534,3.596-7.44,5.786c-2.246,2.584-1.539,5.965-5.788,7.444c-2.645,0.92-8.487,0-13.228,0h-14.058
	c-7.665,0-20.788-1.829-27.288,0c-0.74,0.211-2.507,2.007-4.135,3.306c-2.432,1.943-3.525,3.948-4.96,5.79
	c-0.542,0.692-1.868,0.999-2.479,1.653c-12.129,12.919-21.631,21.629-33.904,33.902c-5.306,5.306-10.173,12.957-16.536,14.057
	c-1.882,0.324-3.661-0.639-5.788-0.826c-6.977-0.613-14.393,0-20.672,0c-9.315,0-19.823-1.786-27.285,0.826
	c-3.285,1.15-6.897,5.24-9.925,8.27c-8.155,8.158-15.403,15.951-23.15,23.148c-2.983,2.773-1.845,3.188-5.79,4.138
	c-6.124,1.475-15.098,0-20.67,0c-6.089,0-16.488,1.151-20.672,0c-3.442-0.948-6.171-5.347-9.921-9.096
	c-8.756-8.757-17.662-18.255-26.46-25.632c-3.777-3.164-8.104-3.921-14.884-3.309c1.303-3.002,3.98-5.693,6.612-8.27
	c2.477-2.423,5.147-5.656,9.096-6.616c7.014-1.698,17.672,0,27.288,0h27.286c2.549,0.085,1.764,2.956,2.479,4.138
	c2.38,3.919,6.604,7.6,11.575,8.264c9.004,1.206,18.134-4.555,18.192-14.881c0.045-7.44-5.104-16.253-16.535-15.709
	c-3.391,0.16-8.428,2.697-9.925,4.132c-2.298,2.212-2.015,6.817-5.786,8.271c-2.671,1.028-8.191,0-12.404,0h-37.206
	c5.231-6.428,16.997-16.998,23.979-23.98c3.111-3.112,5.168-6.486,9.095-7.441c6.281-1.53,14.656,0,22.323,0h45.479
	c7.82,0,18.156-1.78,23.153,0c3.498,1.247,4.951,6.384,6.614,8.27c1.938,2.193,5.291,5.613,8.271,6.614
	c13.48,4.535,24.239-2.792,28.111-9.922c9.824-18.085-7.726-40.604-28.939-31.422c-4.125,1.786-8.506,7.045-10.748,10.752
	c-1.44,2.376-0.342,3.021-3.309,4.13c-2.881,1.082-8.754,0-13.229,0h-42.172c10.09-9.846,24.255-25.777,35.557-36.38
	c2.468-2.315,4.057-3.515,6.615-4.135c3.902-0.94,10.826,0,16.537,0h33.9c6.448,0,13.354-1.101,17.365,0
	c4.127,1.131,6.362,5.538,9.094,8.271c3.414,3.412,7.168,5.322,8.271,9.096c-2.727,4.838-1.762,10.929,0,14.057
	c1.758,3.122,7.245,7.045,9.095,7.439c13.447,2.872,21.221-8.34,19.844-18.19c-0.666-4.781-4.318-8.028-7.44-9.921
	c-5.73-3.476-9.253-2.98-17.364,0c-7.28-3.923-10.48-14.469-19.02-16.539c-4.311-1.045-10.857,0-16.536,0
	c-16.848,0-34.131,0.672-48.784-0.826c1.76-1.911,2.295-4.054,4.133-4.962c2.737-1.345,5.865-0.666,9.097-0.826
	c44.395-2.212,93.147,1.668,135.604,0c2.835,2.438,3.327,6.119,5.791,8.269c7.532,6.58,20.186,4.077,23.976-4.138
	c5.104-11.047-2.475-25.914-18.188-22.32c-1.806,0.41-6.692,4.095-7.441,4.96c-0.704,0.804-0.971,2.915-1.656,4.135
	c-0.938,1.668-0.834,2.381-3.307,3.308c-2.589,0.969-8.929,0-14.06,0H409.3c5.924-4.873,6.758-10.645,14.059-12.402
	c5.457-1.315,12.805,1.94,20.67,0c3.7-0.913,8.834-6.212,10.748-8.271c0.557-0.597,0.268-1.861,0.83-2.479
	c7.57-8.335,14.702-14.702,22.324-22.326c4.525-4.525,9.051-9.879,12.402-10.749c1.95-0.506,3.99,0.771,5.789,0.825
	c11.064,0.338,16.492-8.946,15.709-17.362c-0.824-8.854-8.695-14.085-17.364-13.228c-6.472,0.636-12.563,6.493-13.229,13.228
	c-0.429,4.35,0.951,8.075,3.306,12.402c-12.412,12.155-23.658,25.24-36.38,37.21c-2.281,2.146-3.806,3.458-6.617,4.132
	c-6.138,1.481-14.19-2.01-21.496,0c-3.974,1.096-6.558,5.729-9.921,9.097c-2.684,2.682-5.561,4.986-7.443,7.44
	c-0.487,0.636-0.684,2.992-2.482,2.483c-4.364,1.167-11.894-1.51-17.363,0c-2.141,0.59-5.408,3.811-8.268,6.613
	c-16.854,16.498-31.893,33.523-48.787,48.785c-2.354,2.127-2.064,2.609-4.96,3.306c-9.954,2.4-21.762-2.576-31.422,0.832
	c-5.394,1.898-11.31,10.48-16.538,15.708c-12.404,12.402-20.062,20.063-32.244,32.246c-5.516,5.515-11.881,13.556-17.366,14.886
	c-5.667,1.374-14.284,0-21.498,0H47.132c3.632-4.837,8.56-8.556,13.229-13.23c4.524-4.523,8.128-10.965,14.059-12.403
	c6.051-1.468,14.162,0,21.498,0h43.824c7.103,0,16.239-1.585,22.324,0c3.746,0.978,5.716,4.7,7.444,5.788
	c0.792,0.499,1.812,0.41,2.479,0.826c1.256,0.781,3.253,2.172,4.135,2.481c4.254,1.504,11.095,2.337,16.537,1.652
	c8.792-1.099,17.3-6.852,20.672-10.748c0.828-0.958,1.308-3.054,2.48-4.962c0.947-1.541,2.801-2.854,3.309-4.134
	c1.555-3.934,2.555-10.189,2.479-14.057c-0.341-17.796-16.419-33.198-33.901-33.073c-9.18,0.064-14.854,3.547-20.673,8.27
	c-4.571,3.707-9.174,9.055-10.75,14.056c-1.37,4.359-0.954,8.758-2.479,16.536h-51.265c14.628-15.829,33.556-33.557,49.612-49.614
	c3.318-3.313,3.983-5.58,8.268-6.612c4.238-1.022,9.588,0,14.885,0h44.648c2.02,13.504,12.723,23.611,27.287,23.15
	c13.239-0.419,22.655-10.902,25.633-23.15c5.656-0.901,10.612,0.527,14.886-0.827c3.948-1.251,6.048-4.396,9.922-8.269
	c16.915-16.916,30.486-29.658,47.132-46.306c6.66-6.659,12.53-17.129,22.326-14.881c5.471,1.252,3.533,3.645,6.614,6.612
	c2.401,2.318,4.927,4.459,9.095,4.963c6.365,0.767,14.685-1.538,17.363-11.575c2.573-9.647-3.718-18.247-13.229-19.021
	c-6.828-0.554-11.279,2.374-14.057,5.79c-2.125,2.613-1.218,5.894-4.96,7.442c-3,1.241-8.023-1.081-11.576,0
	c-1.838,0.557-5.916,5.088-9.098,8.268c-3.13,3.132-6.239,7.069-8.267,9.097c-13.677,13.677-25.257,22.867-37.21,37.21
	c-1.142,1.369-1.839,1.816-3.306,2.479c-0.204,0.093-0.62,1.456-0.828,1.653c-3.868,3.621-8.749,9.786-12.404,10.749
	c-2.851,0.754-7.624-0.494-12.403,0c-2.15-9.152-7.218-15.384-13.229-20.672c4.623-3.412,8.439-8.438,13.229-13.229
	c4.572-4.57,10.982-8.201,12.403-14.058c2.128-8.771-2.358-19.542,0-28.112c0.97-3.513,4.401-5.228,7.44-8.271
	c2.688-2.685,5.666-5.663,8.27-8.27c5.033-5.034,11.625-14.311,17.366-15.708c6.783-1.652,16.262,0,23.977,0
	c7.126,0,18.956,1.609,24.81,0c4.684-1.29,9.567-8.744,14.883-14.059c3.926-3.928,11.358-12.916,15.709-13.228
	c1.031-0.076,1.792,1.333,2.48,1.652c7.309,3.389,15.933,2.71,21.502,0c0.445-0.22,1.195,0.205,1.652,0
	c0.289-0.128,0.48-1.459,0.826-1.652c3.419-1.929,7.078-3.947,9.094-6.618c0.479-0.629,0.474-1.904,0.828-2.479
	c4.929-7.929,4.548-17.776,0.828-25.631c-3.033-6.4-9.809-12.718-18.192-14.058c-11.498-1.836-17.865,1.696-23.152,6.612
	c-5.774,5.374-9.992,13.655-8.268,24.81c0.245,1.595,2.947,4.533,2.479,7.44c-0.588,3.66-9.409,10.235-13.229,14.056
	c-6.125,6.124-8.756,11.352-14.885,12.404c-3.175,0.546-7.26-0.69-10.75-0.828c-4.032-0.159-8.023,0-11.576,0
	c-7.842,0-16.886-1.747-23.979,0c-3.143,0.778-7.278,4.8-10.752,8.27c-7.896,7.898-12.387,12.392-19.842,19.846
	c-3.68,3.678-8.313,7.929-9.096,10.747c-2.524,9.083,2.409,20.157,0,28.942c-1.129,4.121-8.45,10.104-13.229,14.883
	c-3.375,3.372-11.372,12.467-14.886,14.057c-1.805,0.816-4.747,0.36-6.612,0.826c-5.047,1.263-6.157,2.403-9.098,4.964
	c-1.277,1.11-3.152,2.143-4.133,3.308c-2.524,2.985-2.939,6.987-6.615,8.269c-3.424,1.191-10.619,0-15.711,0h-31.422
	c-5.424,0-11.453-1.052-15.712,0c-6.188,1.523-12.739,11.086-18.188,16.538c-13.205,13.206-22.432,22.43-35.556,35.554
	c-4.047,4.049-14.013,15.322-19.017,16.536c-4.915,1.191-10.811-1.412-16.539,0c-3.561,0.879-8.172,5.688-12.404,9.924
	l-22.324,22.324c-4.842,4.838-7.763,9.621-12.402,10.75c-5.024,1.218-12.461,0.62-19.842,0.237
	c-0.015,5.707,0.004,11.415,0.033,17.123c28.098,0,54.55,0.002,81.823,0.002c4.692,0,11.149-1.026,14.884,0
	c4.218,1.166,8.547,7.723,12.402,11.578c8.941,8.938,15.473,15.469,23.979,23.978c4.517,4.519,9.54,10.563,13.23,11.576
	c3.229,0.888,8.513,0,12.4,0h39.691c4.193,4.773,5.899,11.016,12.402,12.404c9.499,2.029,20.188-4.234,19.847-15.708
	c-0.234-7.914-7.545-15.663-17.365-14.888c-4.046,0.321-6.454,2.395-9.096,4.964c-2.656,2.58-2.961,6.165-6.615,7.44
	c-2.752,0.959-7.734,0-11.576,0h-12.4c-7.144,0-19.087,1.577-24.808,0c-3.595-0.986-6.538-5.713-10.749-9.923
	c-9.552-9.552-18.509-17.173-26.46-25.632c-1.27-1.354-4.267-3.401-3.308-5.79c10.934-2.298,14.611,5.517,19.848,10.75
	c4.156,4.16,11.253,12.775,16.534,14.056c7.271,1.766,16.558-1.29,27.286,0c3.246,1.549,3.107,5.402,4.964,7.444
	c8.565,9.435,27.955,5.825,27.284-10.748c-0.33-8.171-7.625-15.43-16.537-14.884c-5.971,0.361-10.175,4.913-12.402,8.266
	c-1.498,2.256-0.474,3.084-3.309,4.135c-2.737,1.017-8.5,0-12.402,0c-4.43,0-9.821,0.709-12.401,0
	c-3.752-1.027-7.793-6.139-10.752-9.095c-1.782-1.782-3.523-3.472-4.96-4.96c-1.741-1.809-4.09-3.767-3.305-4.964h88.471
	c8.26,0,23.039-1.853,29.768,0c3.655,1.008,6.239,5.411,9.923,9.097c7.349,7.349,12.972,12.869,19.846,19.844
	c3.748,3.808,7.946,8.336,10.75,9.094c4.358,1.187,11.562,0,17.36,0H410.13c6.134,0,13.645-1.243,18.188,0
	c3.466,0.954,8.984,7.335,13.229,11.578c8.988,8.986,16.287,17.113,24.808,25.634c3.965,3.965,10.15,10.598,14.056,11.576
	c7.333,1.832,16.384,0,23.982,0h24.802c1.654,2.37,2.816,6.891,4.137,8.271c3.223,3.361,7.421,7.994,10.748,9.922
	c2.211,1.277,2.885,1.525,5.789,2.479c3.006,0.986,9.763,2.965,13.23,2.479c8.963-1.25,19.469-5.486,24.805-12.401
	c0.675-0.878,1.578-3.249,2.481-4.962c1.045-1.984,1.799-3.81,2.481-5.788C598.007,2035.239,590.461,2020.882,582.942,2014.591z"/>
<linearGradient id="SVGID_4_" gradientUnits="userSpaceOnUse" x1="3866.4785" y1="3637.2681" x2="3894.2832" y2="3637.2681" gradientTransform="matrix(-4.371139e-008 1 -1 -4.371139e-008 4203.0547 -1985.5251)">
	<stop  offset="0" style="stop-color:#662483"/>
	<stop  offset="0.0391" style="stop-color:#662F88"/>
	<stop  offset="0.1768" style="stop-color:#61539F"/>
	<stop  offset="0.3165" style="stop-color:#5970B4"/>
	<stop  offset="0.4556" style="stop-color:#4F86C6"/>
	<stop  offset="0.5938" style="stop-color:#4696D2"/>
	<stop  offset="0.7311" style="stop-color:#3EA1DA"/>
	<stop  offset="0.867" style="stop-color:#38A7DF"/>
	<stop  offset="1" style="stop-color:#36A9E1"/>
</linearGradient>
<path fill-rule="evenodd" clip-rule="evenodd" fill="url(#SVGID_4_)" d="M578.807,1891.39c0.813,3.479,1.077,6.303,0,9.096
	c-1.366,3.558-7.076,8.147-12.403,8.269c-8.491,0.189-17.566-9.114-13.229-19.844c1.945-4.808,8.796-9.55,17.363-7.444
	C572.889,1882.044,577.45,1885.579,578.807,1891.39z"/>
<linearGradient id="SVGID_5_" gradientUnits="userSpaceOnUse" x1="4009.2246" y1="3642.0786" x2="4041.5176" y2="3642.0786" gradientTransform="matrix(-4.371139e-008 1 -1 -4.371139e-008 4203.0547 -1985.5251)">
	<stop  offset="0" style="stop-color:#662483"/>
	<stop  offset="0.0391" style="stop-color:#662F88"/>
	<stop  offset="0.1768" style="stop-color:#61539F"/>
	<stop  offset="0.3165" style="stop-color:#5970B4"/>
	<stop  offset="0.4556" style="stop-color:#4F86C6"/>
	<stop  offset="0.5938" style="stop-color:#4696D2"/>
	<stop  offset="0.7311" style="stop-color:#3EA1DA"/>
	<stop  offset="0.867" style="stop-color:#38A7DF"/>
	<stop  offset="1" style="stop-color:#36A9E1"/>
</linearGradient>
<path fill-rule="evenodd" clip-rule="evenodd" fill="url(#SVGID_5_)" d="M576.327,2034.437c2.595,8.766-2.098,18.305-9.097,20.674
	c-9.734,3.295-22.123-2.873-22.324-14.886C544.609,2022.471,571.092,2016.755,576.327,2034.437z"/>
<linearGradient id="SVGID_6_" gradientUnits="userSpaceOnUse" x1="3802.1875" y1="3658.5884" x2="3821.5156" y2="3658.5884" gradientTransform="matrix(-4.371139e-008 1 -1 -4.371139e-008 4203.0547 -1985.5251)">
	<stop  offset="0" style="stop-color:#662483"/>
	<stop  offset="0.0391" style="stop-color:#662F88"/>
	<stop  offset="0.1768" style="stop-color:#61539F"/>
	<stop  offset="0.3165" style="stop-color:#5970B4"/>
	<stop  offset="0.4556" style="stop-color:#4F86C6"/>
	<stop  offset="0.5938" style="stop-color:#4696D2"/>
	<stop  offset="0.7311" style="stop-color:#3EA1DA"/>
	<stop  offset="0.867" style="stop-color:#38A7DF"/>
	<stop  offset="1" style="stop-color:#36A9E1"/>
</linearGradient>
<path fill-rule="evenodd" clip-rule="evenodd" fill="url(#SVGID_6_)" d="M553.175,1822.762c2.578,7.399-1.418,13.167-8.269,13.228
	c-6.634,0.058-9.727-5.691-9.923-9.096C534.431,1817.244,549.325,1811.715,553.175,1822.762z"/>
<linearGradient id="SVGID_7_" gradientUnits="userSpaceOnUse" x1="3922.873" y1="3676.2144" x2="3953.0371" y2="3676.2144" gradientTransform="matrix(-4.371139e-008 1 -1 -4.371139e-008 4203.0547 -1985.5251)">
	<stop  offset="0" style="stop-color:#662483"/>
	<stop  offset="0.0391" style="stop-color:#662F88"/>
	<stop  offset="0.1768" style="stop-color:#61539F"/>
	<stop  offset="0.3165" style="stop-color:#5970B4"/>
	<stop  offset="0.4556" style="stop-color:#4F86C6"/>
	<stop  offset="0.5938" style="stop-color:#4696D2"/>
	<stop  offset="0.7311" style="stop-color:#3EA1DA"/>
	<stop  offset="0.867" style="stop-color:#38A7DF"/>
	<stop  offset="1" style="stop-color:#36A9E1"/>
</linearGradient>
<path fill-rule="evenodd" clip-rule="evenodd" fill="url(#SVGID_7_)" d="M540.771,1948.445c0.999,4.014,1.411,5.611,0.828,8.27
	c-0.266,1.214-4.354,7.253-5.788,8.267c-1.793,1.268-5.729,2.343-7.442,2.479c-7.965,0.645-16.976-4.88-16.537-15.708
	c0.099-2.402,1.058-6.241,2.482-8.272c1.876-2.667,8.49-7.462,16.535-5.785C533.898,1938.333,539.215,1942.185,540.771,1948.445z"/>
<linearGradient id="SVGID_8_" gradientUnits="userSpaceOnUse" x1="3728.8789" y1="3706.6509" x2="3747.6885" y2="3706.6509" gradientTransform="matrix(-4.371139e-008 1 -1 -4.371139e-008 4203.0547 -1985.5251)">
	<stop  offset="0" style="stop-color:#662483"/>
	<stop  offset="0.0391" style="stop-color:#662F88"/>
	<stop  offset="0.1768" style="stop-color:#61539F"/>
	<stop  offset="0.3165" style="stop-color:#5970B4"/>
	<stop  offset="0.4556" style="stop-color:#4F86C6"/>
	<stop  offset="0.5938" style="stop-color:#4696D2"/>
	<stop  offset="0.7311" style="stop-color:#3EA1DA"/>
	<stop  offset="0.867" style="stop-color:#38A7DF"/>
	<stop  offset="1" style="stop-color:#36A9E1"/>
</linearGradient>
<path fill-rule="evenodd" clip-rule="evenodd" fill="url(#SVGID_8_)" d="M505.217,1749.996c4.394,14.961-17.808,16.195-18.194,3.309
	C486.711,1742.715,501.992,1739.017,505.217,1749.996z"/>
<linearGradient id="SVGID_9_" gradientUnits="userSpaceOnUse" x1="4081.4111" y1="3726.3394" x2="4099.6279" y2="3726.3394" gradientTransform="matrix(-4.371139e-008 1 -1 -4.371139e-008 4203.0547 -1985.5251)">
	<stop  offset="0" style="stop-color:#662483"/>
	<stop  offset="0.0391" style="stop-color:#662F88"/>
	<stop  offset="0.1768" style="stop-color:#61539F"/>
	<stop  offset="0.3165" style="stop-color:#5970B4"/>
	<stop  offset="0.4556" style="stop-color:#4F86C6"/>
	<stop  offset="0.5938" style="stop-color:#4696D2"/>
	<stop  offset="0.7311" style="stop-color:#3EA1DA"/>
	<stop  offset="0.867" style="stop-color:#38A7DF"/>
	<stop  offset="1" style="stop-color:#36A9E1"/>
</linearGradient>
<path fill-rule="evenodd" clip-rule="evenodd" fill="url(#SVGID_9_)" d="M485.37,2101.414c5.722,16.225-18.344,16.404-18.188,3.31
	c0.095-8.063,9.512-10.782,14.882-7.442C484.02,2098.497,484.275,2098.304,485.37,2101.414z"/>
<linearGradient id="SVGID_10_" gradientUnits="userSpaceOnUse" x1="3841.4678" y1="3729.6704" x2="3860.165" y2="3729.6704" gradientTransform="matrix(-4.371139e-008 1 -1 -4.371139e-008 4203.0547 -1985.5251)">
	<stop  offset="0" style="stop-color:#662483"/>
	<stop  offset="0.0391" style="stop-color:#662F88"/>
	<stop  offset="0.1768" style="stop-color:#61539F"/>
	<stop  offset="0.3165" style="stop-color:#5970B4"/>
	<stop  offset="0.4556" style="stop-color:#4F86C6"/>
	<stop  offset="0.5938" style="stop-color:#4696D2"/>
	<stop  offset="0.7311" style="stop-color:#3EA1DA"/>
	<stop  offset="0.867" style="stop-color:#38A7DF"/>
	<stop  offset="1" style="stop-color:#36A9E1"/>
</linearGradient>
<path fill-rule="evenodd" clip-rule="evenodd" fill="url(#SVGID_10_)" d="M482.064,1862.45c0.069,0.231,0.753,0.08,0.827,0.826
	c1.479,15.46-20.436,14.565-19.018,0.829C464.737,1855.73,478.839,1851.678,482.064,1862.45z"/>
<linearGradient id="SVGID_11_" gradientUnits="userSpaceOnUse" x1="4167.4355" y1="3744.9731" x2="4197.7471" y2="3744.9731" gradientTransform="matrix(-4.371139e-008 1 -1 -4.371139e-008 4203.0547 -1985.5251)">
	<stop  offset="0" style="stop-color:#662483"/>
	<stop  offset="0.0391" style="stop-color:#662F88"/>
	<stop  offset="0.1768" style="stop-color:#61539F"/>
	<stop  offset="0.3165" style="stop-color:#5970B4"/>
	<stop  offset="0.4556" style="stop-color:#4F86C6"/>
	<stop  offset="0.5938" style="stop-color:#4696D2"/>
	<stop  offset="0.7311" style="stop-color:#3EA1DA"/>
	<stop  offset="0.867" style="stop-color:#38A7DF"/>
	<stop  offset="1" style="stop-color:#36A9E1"/>
</linearGradient>
<path fill-rule="evenodd" clip-rule="evenodd" fill="url(#SVGID_11_)" d="M472.143,2192.369
	c3.382,11.816-4.181,19.556-13.228,19.844c-9.208,0.299-15.575-7.326-15.713-14.881c-0.172-9.443,8.265-17.63,19.844-14.884
	C465.31,2182.984,470.665,2187.208,472.143,2192.369z"/>
<linearGradient id="SVGID_12_" gradientUnits="userSpaceOnUse" x1="4041.2891" y1="3747.3774" x2="4060.5068" y2="3747.3774" gradientTransform="matrix(-4.371139e-008 1 -1 -4.371139e-008 4203.0547 -1985.5251)">
	<stop  offset="0" style="stop-color:#662483"/>
	<stop  offset="0.0391" style="stop-color:#662F88"/>
	<stop  offset="0.1768" style="stop-color:#61539F"/>
	<stop  offset="0.3165" style="stop-color:#5970B4"/>
	<stop  offset="0.4556" style="stop-color:#4F86C6"/>
	<stop  offset="0.5938" style="stop-color:#4696D2"/>
	<stop  offset="0.7311" style="stop-color:#3EA1DA"/>
	<stop  offset="0.867" style="stop-color:#38A7DF"/>
	<stop  offset="1" style="stop-color:#36A9E1"/>
</linearGradient>
<path fill-rule="evenodd" clip-rule="evenodd" fill="url(#SVGID_12_)" d="M464.698,2064.204c0.004,0.021,0.828-0.012,0.828,0
	c-0.061,4.964-3.089,10.356-9.096,10.751c-8.751,0.574-12.196-8.511-9.92-14.056c0.159-0.394,1.51-0.518,1.653-0.828
	c0.161-0.36-0.262-1.372,0-1.651c3.509-3.801,11.994-3.273,14.882,0c0.476,0.534,0.366,1.171,0.828,1.651
	C464.298,2060.511,464.36,2061.816,464.698,2064.204z"/>
<linearGradient id="SVGID_13_" gradientUnits="userSpaceOnUse" x1="4103.001" y1="3760.5044" x2="4122.0107" y2="3760.5044" gradientTransform="matrix(-4.371139e-008 1 -1 -4.371139e-008 4203.0547 -1985.5251)">
	<stop  offset="0" style="stop-color:#662483"/>
	<stop  offset="0.0391" style="stop-color:#662F88"/>
	<stop  offset="0.1768" style="stop-color:#61539F"/>
	<stop  offset="0.3165" style="stop-color:#5970B4"/>
	<stop  offset="0.4556" style="stop-color:#4F86C6"/>
	<stop  offset="0.5938" style="stop-color:#4696D2"/>
	<stop  offset="0.7311" style="stop-color:#3EA1DA"/>
	<stop  offset="0.867" style="stop-color:#38A7DF"/>
	<stop  offset="1" style="stop-color:#36A9E1"/>
</linearGradient>
<path fill-rule="evenodd" clip-rule="evenodd" fill="url(#SVGID_13_)" d="M451.47,2124.566c1.656,6.316-0.705,10.09-5.785,11.575
	c-4.817,1.413-11.441-1.671-12.406-6.612c-1.563-7.997,7.896-15.98,15.71-9.924C450.49,2120.767,450.778,2121.923,451.47,2124.566z"
	/>
<linearGradient id="SVGID_14_" gradientUnits="userSpaceOnUse" x1="3652.5654" y1="3791.2935" x2="3682.6377" y2="3791.2935" gradientTransform="matrix(-4.371139e-008 1 -1 -4.371139e-008 4203.0547 -1985.5251)">
	<stop  offset="0" style="stop-color:#662483"/>
	<stop  offset="0.0391" style="stop-color:#662F88"/>
	<stop  offset="0.1768" style="stop-color:#61539F"/>
	<stop  offset="0.3165" style="stop-color:#5970B4"/>
	<stop  offset="0.4556" style="stop-color:#4F86C6"/>
	<stop  offset="0.5938" style="stop-color:#4696D2"/>
	<stop  offset="0.7311" style="stop-color:#3EA1DA"/>
	<stop  offset="0.867" style="stop-color:#38A7DF"/>
	<stop  offset="1" style="stop-color:#36A9E1"/>
</linearGradient>
<path fill-rule="evenodd" clip-rule="evenodd" fill="url(#SVGID_14_)" d="M425.838,1679.714c0.042,0.281,0.836,0.802,0.826,1.652
	c-0.064,7.699-5.607,15.203-14.056,15.711c-17.189,1.036-20.44-21.733-9.096-28.114
	C411.133,1664.675,424.001,1667.261,425.838,1679.714z"/>
<linearGradient id="SVGID_15_" gradientUnits="userSpaceOnUse" x1="3862.4023" y1="3791.8638" x2="3884.3906" y2="3791.8638" gradientTransform="matrix(-4.371139e-008 1 -1 -4.371139e-008 4203.0547 -1985.5251)">
	<stop  offset="0" style="stop-color:#662483"/>
	<stop  offset="0.0391" style="stop-color:#662F88"/>
	<stop  offset="0.1768" style="stop-color:#61539F"/>
	<stop  offset="0.3165" style="stop-color:#5970B4"/>
	<stop  offset="0.4556" style="stop-color:#4F86C6"/>
	<stop  offset="0.5938" style="stop-color:#4696D2"/>
	<stop  offset="0.7311" style="stop-color:#3EA1DA"/>
	<stop  offset="0.867" style="stop-color:#38A7DF"/>
	<stop  offset="1" style="stop-color:#36A9E1"/>
</linearGradient>
<path fill-rule="evenodd" clip-rule="evenodd" fill="url(#SVGID_15_)" d="M421.706,1885.603c0.958,4.839-1.637,12.682-9.098,13.229
	c-8.78,0.646-13.859-8.636-11.576-15.708c0.132-0.408,1.511-0.519,1.654-0.832c0.174-0.388-0.264-1.322,0-1.652
	c1.854-2.324,8.253-4.81,13.229-3.306C418.055,1877.978,420.769,1880.891,421.706,1885.603z"/>
<linearGradient id="SVGID_16_" gradientUnits="userSpaceOnUse" x1="3748.707" y1="3818.1958" x2="3768.0029" y2="3818.1958" gradientTransform="matrix(-4.371139e-008 1 -1 -4.371139e-008 4203.0547 -1985.5251)">
	<stop  offset="0" style="stop-color:#662483"/>
	<stop  offset="0.0391" style="stop-color:#662F88"/>
	<stop  offset="0.1768" style="stop-color:#61539F"/>
	<stop  offset="0.3165" style="stop-color:#5970B4"/>
	<stop  offset="0.4556" style="stop-color:#4F86C6"/>
	<stop  offset="0.5938" style="stop-color:#4696D2"/>
	<stop  offset="0.7311" style="stop-color:#3EA1DA"/>
	<stop  offset="0.867" style="stop-color:#38A7DF"/>
	<stop  offset="1" style="stop-color:#36A9E1"/>
</linearGradient>
<path fill-rule="evenodd" clip-rule="evenodd" fill="url(#SVGID_16_)" d="M393.59,1769.012c2.146,5.881-0.359,12.174-5.788,13.23
	c-4.14,0.81-5.845-0.595-8.268-2.48c-1.894-1.471-3.938-3.62-4.136-5.784c-0.461-5.027,3.698-10.388,9.096-10.752
	C387.127,1763.051,391.429,1763.092,393.59,1769.012z"/>
<linearGradient id="SVGID_17_" gradientUnits="userSpaceOnUse" x1="4016.9014" y1="3818.604" x2="4036.5078" y2="3818.604" gradientTransform="matrix(-4.371139e-008 1 -1 -4.371139e-008 4203.0547 -1985.5251)">
	<stop  offset="0" style="stop-color:#662483"/>
	<stop  offset="0.0391" style="stop-color:#662F88"/>
	<stop  offset="0.1768" style="stop-color:#61539F"/>
	<stop  offset="0.3165" style="stop-color:#5970B4"/>
	<stop  offset="0.4556" style="stop-color:#4F86C6"/>
	<stop  offset="0.5938" style="stop-color:#4696D2"/>
	<stop  offset="0.7311" style="stop-color:#3EA1DA"/>
	<stop  offset="0.867" style="stop-color:#38A7DF"/>
	<stop  offset="1" style="stop-color:#36A9E1"/>
</linearGradient>
<path fill-rule="evenodd" clip-rule="evenodd" fill="url(#SVGID_17_)" d="M392.764,2036.917c3.107,7.681-1.264,13.745-7.441,14.059
	c-3.493,0.179-7.175-2.954-9.097-4.96c-0.465-0.486-1.657-6.47-0.827-9.099c0.128-0.403,1.515-0.514,1.655-0.823
	c0.437-0.971,0.344-2.438,1.652-3.309C383.414,2029.653,390.793,2032.054,392.764,2036.917z"/>
<linearGradient id="SVGID_18_" gradientUnits="userSpaceOnUse" x1="3904.3975" y1="3873.0688" x2="3923.2227" y2="3873.0688" gradientTransform="matrix(-4.371139e-008 1 -1 -4.371139e-008 4203.0547 -1985.5251)">
	<stop  offset="0" style="stop-color:#662483"/>
	<stop  offset="0.0391" style="stop-color:#662F88"/>
	<stop  offset="0.1768" style="stop-color:#61539F"/>
	<stop  offset="0.3165" style="stop-color:#5970B4"/>
	<stop  offset="0.4556" style="stop-color:#4F86C6"/>
	<stop  offset="0.5938" style="stop-color:#4696D2"/>
	<stop  offset="0.7311" style="stop-color:#3EA1DA"/>
	<stop  offset="0.867" style="stop-color:#38A7DF"/>
	<stop  offset="1" style="stop-color:#36A9E1"/>
</linearGradient>
<path fill-rule="evenodd" clip-rule="evenodd" fill="url(#SVGID_18_)" d="M339.018,1926.119c3.315,13.272-16.036,15.42-18.191,4.96
	C318.278,1918.738,335.871,1913.529,339.018,1926.119z"/>
<linearGradient id="SVGID_19_" gradientUnits="userSpaceOnUse" x1="3814.2754" y1="3956.981" x2="3843.4717" y2="3956.981" gradientTransform="matrix(-4.371139e-008 1 -1 -4.371139e-008 4203.0547 -1985.5251)">
	<stop  offset="0" style="stop-color:#662483"/>
	<stop  offset="0.0391" style="stop-color:#662F88"/>
	<stop  offset="0.1768" style="stop-color:#61539F"/>
	<stop  offset="0.3165" style="stop-color:#5970B4"/>
	<stop  offset="0.4556" style="stop-color:#4F86C6"/>
	<stop  offset="0.5938" style="stop-color:#4696D2"/>
	<stop  offset="0.7311" style="stop-color:#3EA1DA"/>
	<stop  offset="0.867" style="stop-color:#38A7DF"/>
	<stop  offset="1" style="stop-color:#36A9E1"/>
</linearGradient>
<path fill-rule="evenodd" clip-rule="evenodd" fill="url(#SVGID_19_)" d="M260.466,1840.953c0.044,0.289,0.836,0.794,0.824,1.651
	c-0.099,11.58-13.334,20.078-23.98,12.404c-4.397-3.172-7.982-7.631-5.787-16.536c0.565-2.289,4.757-6.705,7.445-8.271
	c3.246-1.889,9.762-1.983,14.054,0C256.761,1831.929,259.599,1835.277,260.466,1840.953z"/>
<linearGradient id="SVGID_20_" gradientUnits="userSpaceOnUse" x1="3983.582" y1="3988.1108" x2="4002.8984" y2="3988.1108" gradientTransform="matrix(-4.371139e-008 1 -1 -4.371139e-008 4203.0547 -1985.5251)">
	<stop  offset="0" style="stop-color:#662483"/>
	<stop  offset="0.0391" style="stop-color:#662F88"/>
	<stop  offset="0.1768" style="stop-color:#61539F"/>
	<stop  offset="0.3165" style="stop-color:#5970B4"/>
	<stop  offset="0.4556" style="stop-color:#4F86C6"/>
	<stop  offset="0.5938" style="stop-color:#4696D2"/>
	<stop  offset="0.7311" style="stop-color:#3EA1DA"/>
	<stop  offset="0.867" style="stop-color:#38A7DF"/>
	<stop  offset="1" style="stop-color:#36A9E1"/>
</linearGradient>
<path fill-rule="evenodd" clip-rule="evenodd" fill="url(#SVGID_20_)" d="M224.081,2006.327c0.42,2.285,0.209,5.06-1.651,7.44
	c-0.946,1.21-2.512,2.907-4.136,3.306c-5.182,1.283-11.368-1.673-12.402-6.614c-1.123-5.37,1.19-12.331,9.096-12.401
	C220.244,1998.01,223.161,2001.32,224.081,2006.327z"/>
<linearGradient id="SVGID_21_" gradientUnits="userSpaceOnUse" x1="4059.2598" y1="4009.1597" x2="4089.5674" y2="4009.1597" gradientTransform="matrix(-4.371139e-008 1 -1 -4.371139e-008 4203.0547 -1985.5251)">
	<stop  offset="0" style="stop-color:#662483"/>
	<stop  offset="0.0391" style="stop-color:#662F88"/>
	<stop  offset="0.1768" style="stop-color:#61539F"/>
	<stop  offset="0.3165" style="stop-color:#5970B4"/>
	<stop  offset="0.4556" style="stop-color:#4F86C6"/>
	<stop  offset="0.5938" style="stop-color:#4696D2"/>
	<stop  offset="0.7311" style="stop-color:#3EA1DA"/>
	<stop  offset="0.867" style="stop-color:#38A7DF"/>
	<stop  offset="1" style="stop-color:#36A9E1"/>
</linearGradient>
<path fill-rule="evenodd" clip-rule="evenodd" fill="url(#SVGID_21_)" d="M208.369,2087.357c0.008,0.055,0.854,0.15,0.831,0.828
	c-0.232,6.818-4.834,13.282-9.097,14.887c-3.643,1.365-9.146,1.219-12.403,0c-4.672-1.755-8.912-9.131-9.095-13.234
	c-0.46-10.316,10.217-17.953,19.844-15.711c0.286,0.069,5.773,3.222,6.616,4.139
	C206.988,2080.347,207.944,2083.574,208.369,2087.357z"/>
<linearGradient id="SVGID_22_" gradientUnits="userSpaceOnUse" x1="3867.1963" y1="4014.8384" x2="3899.3027" y2="4014.8384" gradientTransform="matrix(-4.371139e-008 1 -1 -4.371139e-008 4203.0547 -1985.5251)">
	<stop  offset="0" style="stop-color:#662483"/>
	<stop  offset="0.0391" style="stop-color:#662F88"/>
	<stop  offset="0.1768" style="stop-color:#61539F"/>
	<stop  offset="0.3165" style="stop-color:#5970B4"/>
	<stop  offset="0.4556" style="stop-color:#4F86C6"/>
	<stop  offset="0.5938" style="stop-color:#4696D2"/>
	<stop  offset="0.7311" style="stop-color:#3EA1DA"/>
	<stop  offset="0.867" style="stop-color:#38A7DF"/>
	<stop  offset="1" style="stop-color:#36A9E1"/>
</linearGradient>
<path fill-rule="evenodd" clip-rule="evenodd" fill="url(#SVGID_22_)" d="M203.411,1894.697c0.008,0.047,0.76,0.233,0.826,0.83
	c1.477,13.059-11.698,22.207-23.979,16.536c-5.722-2.643-10.855-12.317-6.612-21.499c1.15-2.495,3.189-4.484,6.612-6.613
	C189.458,1878.231,201.433,1883.809,203.411,1894.697z"/>
<linearGradient id="SVGID_23_" gradientUnits="userSpaceOnUse" x1="3961.4453" y1="4014.3628" x2="3980.6387" y2="4014.3628" gradientTransform="matrix(-4.371139e-008 1 -1 -4.371139e-008 4203.0547 -1985.5251)">
	<stop  offset="0" style="stop-color:#662483"/>
	<stop  offset="0.0391" style="stop-color:#662F88"/>
	<stop  offset="0.1768" style="stop-color:#61539F"/>
	<stop  offset="0.3165" style="stop-color:#5970B4"/>
	<stop  offset="0.4556" style="stop-color:#4F86C6"/>
	<stop  offset="0.5938" style="stop-color:#4696D2"/>
	<stop  offset="0.7311" style="stop-color:#3EA1DA"/>
	<stop  offset="0.867" style="stop-color:#38A7DF"/>
	<stop  offset="1" style="stop-color:#36A9E1"/>
</linearGradient>
<path fill-rule="evenodd" clip-rule="evenodd" fill="url(#SVGID_23_)" d="M197.622,1983.172c1.841,7.026-1.779,10.305-5.789,11.576
	c-5.121,1.626-13.87-2.228-12.399-10.748c0.966-5.634,8.438-10.661,14.88-6.616C196.151,1978.538,196.957,1980.627,197.622,1983.172
	z"/>
<linearGradient id="SVGID_24_" gradientUnits="userSpaceOnUse" x1="3969.7314" y1="4129.2622" x2="3999.6191" y2="4129.2622" gradientTransform="matrix(-4.371139e-008 1 -1 -4.371139e-008 4203.0547 -1985.5251)">
	<stop  offset="0" style="stop-color:#662483"/>
	<stop  offset="0.0391" style="stop-color:#662F88"/>
	<stop  offset="0.1768" style="stop-color:#61539F"/>
	<stop  offset="0.3165" style="stop-color:#5970B4"/>
	<stop  offset="0.4556" style="stop-color:#4F86C6"/>
	<stop  offset="0.5938" style="stop-color:#4696D2"/>
	<stop  offset="0.7311" style="stop-color:#3EA1DA"/>
	<stop  offset="0.867" style="stop-color:#38A7DF"/>
	<stop  offset="1" style="stop-color:#36A9E1"/>
</linearGradient>
<path fill-rule="evenodd" clip-rule="evenodd" fill="url(#SVGID_24_)" d="M87.649,1993.922c1.294,4.271,1.556,7.054,0.828,9.92
	c-0.537,2.109-4.99,7.799-8.271,9.097c-10.865,4.296-21.498-4.072-21.498-14.057c0-3.604,1.912-6.833,3.309-9.096
	C67.032,1981.632,84.013,1981.925,87.649,1993.922z"/>
<linearGradient id="SVGID_25_" gradientUnits="userSpaceOnUse" x1="3976.3486" y1="4182.4897" x2="4274.1328" y2="4182.4897" gradientTransform="matrix(-4.371139e-008 1 -1 -4.371139e-008 4203.0547 -1985.5251)">
	<stop  offset="0" style="stop-color:#662483"/>
	<stop  offset="0.0391" style="stop-color:#662F88"/>
	<stop  offset="0.1768" style="stop-color:#61539F"/>
	<stop  offset="0.3165" style="stop-color:#5970B4"/>
	<stop  offset="0.4556" style="stop-color:#4F86C6"/>
	<stop  offset="0.5938" style="stop-color:#4696D2"/>
	<stop  offset="0.7311" style="stop-color:#3EA1DA"/>
	<stop  offset="0.867" style="stop-color:#38A7DF"/>
	<stop  offset="1" style="stop-color:#36A9E1"/>
</linearGradient>
<path fill-rule="evenodd" clip-rule="evenodd" fill="url(#SVGID_25_)" d="M37.21,2136.969c-0.603-0.802-0.127-1.834-0.826-2.48
	c-0.444-0.411-2.035-0.549-2.482-0.827c-4.455-2.771-9.434-3.674-16.536-0.828c-5.079-5.153-11.073-10.896-17.237-16.797v9.278
	c2.15,2.229,4.303,4.454,6.489,6.692c2.012,2.063,5.149,3.278,5.788,6.614c-2.53,3.806-2.128,10.414-0.828,14.058
	c2.667,7.465,10.191,9.096,14.058,9.096c11.255,0,17.165-11.42,14.884-20.672C40.253,2140.023,37.542,2137.409,37.21,2136.969z"/>
<linearGradient id="SVGID_26_" gradientUnits="userSpaceOnUse" x1="3976.3506" y1="3999.3296" x2="4274.1333" y2="3999.3296" gradientTransform="matrix(-4.371139e-008 1 -1 -4.371139e-008 4203.0547 -1985.5251)">
	<stop  offset="0" style="stop-color:#662483"/>
	<stop  offset="0.0391" style="stop-color:#662F88"/>
	<stop  offset="0.1768" style="stop-color:#61539F"/>
	<stop  offset="0.3165" style="stop-color:#5970B4"/>
	<stop  offset="0.4556" style="stop-color:#4F86C6"/>
	<stop  offset="0.5938" style="stop-color:#4696D2"/>
	<stop  offset="0.7311" style="stop-color:#3EA1DA"/>
	<stop  offset="0.867" style="stop-color:#38A7DF"/>
	<stop  offset="1" style="stop-color:#36A9E1"/>
</linearGradient>
<path fill-rule="evenodd" clip-rule="evenodd" fill="url(#SVGID_26_)" d="M387.802,2196.503
	c-11.686-10.494-24.295-24.296-36.384-36.384c-3.907-3.905-9.716-10.597-13.229-11.574c-5.969-1.659-14.506,0-21.498,0h-22.324
	c-2.493-2.541-1.512-5.854-2.482-8.269c-0.414-1.035-1.839-2.153-2.479-3.308c-0.767-1.384-0.906-3.186-1.652-4.132
	c-2.499-3.188-10.568-8.376-14.058-9.098c-13.223-2.729-24.805,4.859-28.939,11.575c-0.419,0.678-1.383,1.135-1.653,1.654
	c-1.988,3.739-0.791,8.224-4.134,11.576h-81.862c-7.585,0-21.344,1.671-27.284,0c-1.986-0.558-6.623-5.749-8.27-7.44
	c-0.91-0.936-2.631-1.741-3.311-2.483c-0.84-0.921-0.85-2.403-1.651-3.307c-1.048-1.181-2.303-1.447-3.309-2.478
	c-21.08-21.654-39.318-40.147-60.36-61.188c-3.472-3.475-8.391-8.94-12.402-9.927c-8.365-2.047-17.773,2.169-25.634,0
	c-4.303-1.188-10.058-8.242-14.757-13.617v16.994c0.51,0.535,1.022,1.079,1.525,1.588c3.26,3.295,3.843,4.54,8.27,5.786
	c8.147,2.291,17.754-1.568,26.461,0.826c3.762,1.037,8.236,7.409,12.401,11.578c10.719,10.716,15.273,15.271,24.811,24.806
	c4.338,4.342,10.365,8.248,11.573,13.23c1.192,4.905-1.418,10.564,0,15.708c1.094,3.96,8.033,9.688,13.23,14.886
	c4.563,4.564,11.771,8.871,13.229,14.884c1.553,6.401-1.136,11.832,0,19.843c-4.589,4.615-9.228,6.168-9.924,13.231
	c-1.938,19.651,21.623,21.158,28.116,11.576c2.176-3.213,3.178-9.343,2.479-13.231c-0.51-2.837-2.962-5.381-4.132-6.615
	c-3.137-3.295-6.471-3.693-10.752-5.787c-1.214-9.322,1.701-16.127,0-22.322c-0.936-3.408-4.455-5.283-7.441-8.271l-8.271-8.27
	c-5.376-5.374-12.959-10.47-9.92-20.671c4.624,3.778,9.946,9.849,16.536,16.537c2.265,2.3,5.203,5.104,8.269,8.27
	c2.788,2.877,6.556,5.66,7.443,9.094c1.188,4.607-1.39,16.229,0,20.673c2.551,8.16,21.919,15.283,18.19,26.46
	c-0.953,2.851-0.855,1.238-3.311,2.48c-2.936,1.484-4.87,2.735-6.612,4.961c-0.657,0.836-2.283,3.364-2.479,4.133
	c-3.463,13.419,6.434,21.041,15.708,20.674c9.269-0.367,16.87-9.266,14.058-20.674c-0.563-2.276-3.738-5.479-4.961-6.612
	c-1.727-1.604-4.816-1.873-6.616-4.962c3.178-17.329-15.53-20.068-18.188-29.767c-1.059-3.851-0.309-13.371,0-15.714
	c0.375-2.872-0.779-2.423,2.479-3.308c3.189-0.863,3.416,0.334,4.133,1.655c0.904,1.667,0.973,10.103,0.827,11.576
	c-0.84,8.621,0.643,7.772,5.789,13.23c2.439,2.588,5.242,5.24,7.439,7.441c3.854,3.854,12.213,10.758,13.232,15.711
	c0.619,3.021-0.828,8.675-0.828,13.228c0,4.991,1.322,10.229,0.828,13.232c-0.632,3.843-2.885,4.826-4.135,7.441
	c-5.006,10.479-0.135,21.589,9.923,23.15c9.513,1.479,16.86-4.523,18.19-10.746c2.371-11.106-4.406-19.306-18.19-20.674
	c-1.601-11.642,2.198-21.799,0-29.767c-1.362-4.934-8.571-9.398-13.232-14.056c-3.677-3.68-12.121-10.847-13.228-14.882
	c-1.145-4.176,0.029-9.59,0.828-16.542c4.637,0.218,7.439-0.661,10.748,0.827c0.69,0.311,1.51,2.319,2.479,3.311
	c11.755,12.032,23.148,21.768,34.728,33.9c2.742,2.875,4.113,3.918,4.965,7.441c1.499,6.229-1.683,12.911,0,19.019
	c0.775,2.825,3.895,4.667,6.613,7.44c2.464,2.513,4.509,5.337,6.615,7.445c5.273,5.271,11.315,9.426,14.055,14.882
	c-6.461,8.271-4.981,19.553-0.825,25.632c1.995,2.921,4.995,4.269,7.442,5.789c3.031,1.883,9.582,3.506,14.882,2.481
	c5.789-1.123,13.489-8.916,14.886-13.229c0.387-1.207,0.713-3.648,0.824-4.965c0.48-5.599-1.362-9.391-2.48-11.576
	c-0.566-1.107-0.143-2.316-0.824-3.306c-1.592-2.312-6.588-5.683-8.271-6.616c-3.289-1.826-6.375-1.939-10.746-1.652
	c-1.77,0.116-4.515,1.314-6.616,0.824c-3.907-0.909-11.424-9.768-14.058-12.401c-3.723-3.722-11.318-10.101-12.402-14.057
	c-1.301-4.742,0.371-11.857,0.826-15.71h66.148c7.084,0,16.41-1.627,22.328,0c3.279,0.904,5.939,4.901,9.092,8.271
	c9.07,9.673,17.505,17.553,25.636,26.46c-4.81,6.126-5.97,7.384-6.616,13.229c-1.095,9.905,2.647,15.647,5.789,19.843
	c2.339,3.124,5.024,4.93,9.094,6.615c7.193,2.98,12.636,2.499,19.02,0c2.992-1.171,6.418-2.435,8.271-4.131
	c1.777-1.637,6.104-8.305,6.611-9.925c2.068-6.61,0.19-16.926-1.653-20.674c-3.7-7.523-14.968-14.982-26.459-13.229
	c-1.655,0.254-3.404,2.121-5.789,1.655c-3.455-0.676-6.014-5.188-9.922-9.096c-7.294-7.296-12.134-12.133-19.017-19.019
	c-2.726-2.725-6.52-6.936-10.748-8.268c-6.011-1.896-14.981-0.828-23.152-0.828h-47.96c-9.2,0-19.595,1.689-24.808,0
	c-1.96-0.637-3.857-3.715-5.784-5.786c-4.683-5.034-8.796-8.622-12.404-12.402c-2.063-2.164-5.187-4.383-4.136-6.617h23.979
	c7.307,0,18.457-1.751,24.805,0c3.211,0.885,6.479,4.822,9.096,7.443c3.496,3.493,4.34,6.293,9.096,7.44
	c4.994,1.205,12.816,0,19.021,0c6.056,0,14.418,1.487,19.844,0c8.749-2.4,14.063-19.637,24.804-19.017
	c4.074,0.232,3.672,1.426,5.789,3.307c1.314,1.165,3.904,2.198,4.136,4.96c-7.485,13.754,4.845,27.904,19.016,23.152
	c7.595-2.545,11.807-13.615,8.272-21.496c-2.857-6.367-13.389-11.02-21.5-6.616c-3.022-0.422-4.433-4.062-6.612-5.786
	c-3.327-2.627-5.036-3.767-9.101-4.139c-0.912-0.081-1.324,0.776-1.651,0.828c-0.62,0.099-1.727-0.816-1.654-0.828
	c-10.163,1.411-15.063,17.483-24.806,19.847c-3.369,0.816-10.771,0-16.536,0c-5.614,0-13.225,1.142-17.364,0
	c-6.07-1.673-10.381-12.989-18.191-14.884c-4.467-1.082-11.599,0-17.365,0c-13.164,0-27.547,1.243-38.863,0
	c-2.992-0.328-2.077-0.955-3.309-1.652c-1.235-0.699-3.727-1.041-3.304-4.138h73.589c3.098,2.034,4.251,5.805,6.613,8.271
	c2.278,2.372,6.546,5.794,9.096,6.614c11.042,3.559,22.668-0.964,27.29-4.962c5.161-4.469,5.918-11.014,9.921-15.708h20.672
	c6.879,0,14.971-1.587,20.67,0c3.732,1.036,7.851,6.978,11.576,10.75c12.053,12.199,24.479,23.623,33.902,34.725
	c-9.445,8.888-3.921,24.789,7.443,26.463c8.123,1.194,15.493-3.51,17.362-8.271C411.396,2204.25,399.353,2193.491,387.802,2196.503z
	"/>
<linearGradient id="SVGID_27_" gradientUnits="userSpaceOnUse" x1="3976.3525" y1="4178.9341" x2="4274.1289" y2="4178.9341" gradientTransform="matrix(-4.371139e-008 1 -1 -4.371139e-008 4203.0547 -1985.5251)">
	<stop  offset="0" style="stop-color:#662483"/>
	<stop  offset="0.0391" style="stop-color:#662F88"/>
	<stop  offset="0.1768" style="stop-color:#61539F"/>
	<stop  offset="0.3165" style="stop-color:#5970B4"/>
	<stop  offset="0.4556" style="stop-color:#4F86C6"/>
	<stop  offset="0.5938" style="stop-color:#4696D2"/>
	<stop  offset="0.7311" style="stop-color:#3EA1DA"/>
	<stop  offset="0.867" style="stop-color:#38A7DF"/>
	<stop  offset="1" style="stop-color:#36A9E1"/>
</linearGradient>
<path fill-rule="evenodd" clip-rule="evenodd" fill="url(#SVGID_27_)" d="M35.558,2085.703c-9.657-1.364-17.064,5.037-18.192,12.402
	c-0.377,2.469,0.716,5.199,0,8.27c-2.636-0.79-6.772,1.01-10.748,0c-1.743-0.443-4.104-2.354-6.489-4.625v8.696
	c1.395,1.209,2.797,2.209,4.01,2.544c6.675,1.843,13.053-0.82,18.188,0c4.615,0.736,7.478,3.785,12.403,3.31
	c6.921-0.671,12.409-7.053,13.232-13.228C49.239,2093.453,42.377,2086.668,35.558,2085.703z"/>
<linearGradient id="SVGID_28_" gradientUnits="userSpaceOnUse" x1="4187.2402" y1="3811.4985" x2="4205.8994" y2="3811.4985" gradientTransform="matrix(-4.371139e-008 1 -1 -4.371139e-008 4203.0547 -1985.5251)">
	<stop  offset="0" style="stop-color:#662483"/>
	<stop  offset="0.0391" style="stop-color:#662F88"/>
	<stop  offset="0.1768" style="stop-color:#61539F"/>
	<stop  offset="0.3165" style="stop-color:#5970B4"/>
	<stop  offset="0.4556" style="stop-color:#4F86C6"/>
	<stop  offset="0.5938" style="stop-color:#4696D2"/>
	<stop  offset="0.7311" style="stop-color:#3EA1DA"/>
	<stop  offset="0.867" style="stop-color:#38A7DF"/>
	<stop  offset="1" style="stop-color:#36A9E1"/>
</linearGradient>
<path fill-rule="evenodd" clip-rule="evenodd" fill="url(#SVGID_28_)" d="M400.204,2208.082c0.143,0.443,0.737,0.713,0.828,1.652
	c1.37,14.291-18.979,13.522-19.018,1.654C381.98,2201.443,396.79,2197.292,400.204,2208.082z"/>
<linearGradient id="SVGID_29_" gradientUnits="userSpaceOnUse" x1="4226.2021" y1="3855.1743" x2="4259.3096" y2="3855.1743" gradientTransform="matrix(-4.371139e-008 1 -1 -4.371139e-008 4203.0547 -1985.5251)">
	<stop  offset="0" style="stop-color:#662483"/>
	<stop  offset="0.0391" style="stop-color:#662F88"/>
	<stop  offset="0.1768" style="stop-color:#61539F"/>
	<stop  offset="0.3165" style="stop-color:#5970B4"/>
	<stop  offset="0.4556" style="stop-color:#4F86C6"/>
	<stop  offset="0.5938" style="stop-color:#4696D2"/>
	<stop  offset="0.7311" style="stop-color:#3EA1DA"/>
	<stop  offset="0.867" style="stop-color:#38A7DF"/>
	<stop  offset="1" style="stop-color:#36A9E1"/>
</linearGradient>
<path fill-rule="evenodd" clip-rule="evenodd" fill="url(#SVGID_29_)" d="M363.822,2254.385c0.293,1.768,0.95,7.104-0.826,10.749
	c-0.23,0.469-1.265,1.021-1.654,1.651c-2.339,3.8-8.9,8.355-17.364,6.616c-5.977-1.226-12.246-8.242-12.399-15.71
	c-0.144-6.728,4.715-13.839,9.92-15.71C352.436,2238.048,361.968,2243.238,363.822,2254.385z"/>
<linearGradient id="SVGID_30_" gradientUnits="userSpaceOnUse" x1="4160.4932" y1="3869.2349" x2="4179.5791" y2="3869.2349" gradientTransform="matrix(-4.371139e-008 1 -1 -4.371139e-008 4203.0547 -1985.5251)">
	<stop  offset="0" style="stop-color:#662483"/>
	<stop  offset="0.0391" style="stop-color:#662F88"/>
	<stop  offset="0.1768" style="stop-color:#61539F"/>
	<stop  offset="0.3165" style="stop-color:#5970B4"/>
	<stop  offset="0.4556" style="stop-color:#4F86C6"/>
	<stop  offset="0.5938" style="stop-color:#4696D2"/>
	<stop  offset="0.7311" style="stop-color:#3EA1DA"/>
	<stop  offset="0.867" style="stop-color:#38A7DF"/>
	<stop  offset="1" style="stop-color:#36A9E1"/>
</linearGradient>
<path fill-rule="evenodd" clip-rule="evenodd" fill="url(#SVGID_30_)" d="M342.322,2180.793c2.866,7.853-1.413,13.733-9.092,13.229
	c-11.384-0.746-12.097-18.206,0-19.018C336.427,2174.792,340.325,2175.312,342.322,2180.793z"/>
<linearGradient id="SVGID_31_" gradientUnits="userSpaceOnUse" x1="4120.4932" y1="3936.0776" x2="4150.6309" y2="3936.0776" gradientTransform="matrix(-4.371139e-008 1 -1 -4.371139e-008 4203.0547 -1985.5251)">
	<stop  offset="0" style="stop-color:#662483"/>
	<stop  offset="0.0391" style="stop-color:#662F88"/>
	<stop  offset="0.1768" style="stop-color:#61539F"/>
	<stop  offset="0.3165" style="stop-color:#5970B4"/>
	<stop  offset="0.4556" style="stop-color:#4F86C6"/>
	<stop  offset="0.5938" style="stop-color:#4696D2"/>
	<stop  offset="0.7311" style="stop-color:#3EA1DA"/>
	<stop  offset="0.867" style="stop-color:#38A7DF"/>
	<stop  offset="1" style="stop-color:#36A9E1"/>
</linearGradient>
<path fill-rule="evenodd" clip-rule="evenodd" fill="url(#SVGID_31_)" d="M281.136,2146.891c0.062,0.321,0.797,0.791,0.826,1.654
	c0.282,8.227-6.048,16.141-14.055,16.54c-13.879,0.685-20.51-16.581-12.405-25.635c2.974-3.32,9.601-5.331,14.884-4.136
	C274.919,2136.342,279.644,2139.18,281.136,2146.891z"/>
<linearGradient id="SVGID_32_" gradientUnits="userSpaceOnUse" x1="4240.7354" y1="3962.8813" x2="4265.543" y2="3962.8813" gradientTransform="matrix(-4.371139e-008 1 -1 -4.371139e-008 4203.0547 -1985.5251)">
	<stop  offset="0" style="stop-color:#662483"/>
	<stop  offset="0.0391" style="stop-color:#662F88"/>
	<stop  offset="0.1768" style="stop-color:#61539F"/>
	<stop  offset="0.3165" style="stop-color:#5970B4"/>
	<stop  offset="0.4556" style="stop-color:#4F86C6"/>
	<stop  offset="0.5938" style="stop-color:#4696D2"/>
	<stop  offset="0.7311" style="stop-color:#3EA1DA"/>
	<stop  offset="0.867" style="stop-color:#38A7DF"/>
	<stop  offset="1" style="stop-color:#36A9E1"/>
</linearGradient>
<path fill-rule="evenodd" clip-rule="evenodd" fill="url(#SVGID_32_)" d="M252.195,2266.786c0.812,8.242-4.676,13.231-11.573,13.231
	c-5.71,0-11.576-4.382-12.404-9.924c-1.036-6.907,3.516-15.041,12.404-14.882C248.036,2255.347,251.455,2259.25,252.195,2266.786z"
	/>
<linearGradient id="SVGID_33_" gradientUnits="userSpaceOnUse" x1="4227.7227" y1="4030.7554" x2="4246.4424" y2="4030.7554" gradientTransform="matrix(-4.371139e-008 1 -1 -4.371139e-008 4203.0547 -1985.5251)">
	<stop  offset="0" style="stop-color:#662483"/>
	<stop  offset="0.0391" style="stop-color:#662F88"/>
	<stop  offset="0.1768" style="stop-color:#61539F"/>
	<stop  offset="0.3165" style="stop-color:#5970B4"/>
	<stop  offset="0.4556" style="stop-color:#4F86C6"/>
	<stop  offset="0.5938" style="stop-color:#4696D2"/>
	<stop  offset="0.7311" style="stop-color:#3EA1DA"/>
	<stop  offset="0.867" style="stop-color:#38A7DF"/>
	<stop  offset="1" style="stop-color:#36A9E1"/>
</linearGradient>
<path fill-rule="evenodd" clip-rule="evenodd" fill="url(#SVGID_33_)" d="M181.086,2248.595c4.659,15.003-17.257,16.21-18.192,4.137
	C162.099,2242.442,177.566,2237.274,181.086,2248.595z"/>
<linearGradient id="SVGID_34_" gradientUnits="userSpaceOnUse" x1="4201.7246" y1="4058.5825" x2="4220.8916" y2="4058.5825" gradientTransform="matrix(-4.371139e-008 1 -1 -4.371139e-008 4203.0547 -1985.5251)">
	<stop  offset="0" style="stop-color:#662483"/>
	<stop  offset="0.0391" style="stop-color:#662F88"/>
	<stop  offset="0.1768" style="stop-color:#61539F"/>
	<stop  offset="0.3165" style="stop-color:#5970B4"/>
	<stop  offset="0.4556" style="stop-color:#4F86C6"/>
	<stop  offset="0.5938" style="stop-color:#4696D2"/>
	<stop  offset="0.7311" style="stop-color:#3EA1DA"/>
	<stop  offset="0.867" style="stop-color:#38A7DF"/>
	<stop  offset="1" style="stop-color:#36A9E1"/>
</linearGradient>
<path fill-rule="evenodd" clip-rule="evenodd" fill="url(#SVGID_34_)" d="M152.974,2222.135c1.876,5.28-0.164,13.23-8.271,13.23
	c-5.259,0-10.694-4.249-9.094-12.404C136.916,2216.297,149.44,2212.219,152.974,2222.135z"/>
<linearGradient id="SVGID_35_" gradientUnits="userSpaceOnUse" x1="4179.46" y1="4086.0493" x2="4198.5361" y2="4086.0493" gradientTransform="matrix(-4.371139e-008 1 -1 -4.371139e-008 4203.0547 -1985.5251)">
	<stop  offset="0" style="stop-color:#662483"/>
	<stop  offset="0.0391" style="stop-color:#662F88"/>
	<stop  offset="0.1768" style="stop-color:#61539F"/>
	<stop  offset="0.3165" style="stop-color:#5970B4"/>
	<stop  offset="0.4556" style="stop-color:#4F86C6"/>
	<stop  offset="0.5938" style="stop-color:#4696D2"/>
	<stop  offset="0.7311" style="stop-color:#3EA1DA"/>
	<stop  offset="0.867" style="stop-color:#38A7DF"/>
	<stop  offset="1" style="stop-color:#36A9E1"/>
</linearGradient>
<path fill-rule="evenodd" clip-rule="evenodd" fill="url(#SVGID_35_)" d="M125.686,2200.641c0.13,0.437,0.779,0.696,0.826,1.652
	c0.729,14.568-19.637,13.735-19.019,0.826c0.049-0.989,0.13-2.785,0.828-4.136c0.189-0.361,1.519-0.527,1.654-0.826
	c0.606-1.348,0.732-2.12,3.306-3.307C118.113,2192.622,123.862,2194.42,125.686,2200.641z"/>
<linearGradient id="SVGID_36_" gradientUnits="userSpaceOnUse" x1="4076.8535" y1="4170.5923" x2="4096.042" y2="4170.5923" gradientTransform="matrix(-4.371139e-008 1 -1 -4.371139e-008 4203.0547 -1985.5251)">
	<stop  offset="0" style="stop-color:#662483"/>
	<stop  offset="0.0391" style="stop-color:#662F88"/>
	<stop  offset="0.1768" style="stop-color:#61539F"/>
	<stop  offset="0.3165" style="stop-color:#5970B4"/>
	<stop  offset="0.4556" style="stop-color:#4F86C6"/>
	<stop  offset="0.5938" style="stop-color:#4696D2"/>
	<stop  offset="0.7311" style="stop-color:#3EA1DA"/>
	<stop  offset="0.867" style="stop-color:#38A7DF"/>
	<stop  offset="1" style="stop-color:#36A9E1"/>
</linearGradient>
<path fill-rule="evenodd" clip-rule="evenodd" fill="url(#SVGID_36_)" d="M41.343,2098.105c1.562,5.48-1.054,12.69-9.094,12.402
	c-6.887-0.245-9.131-6.102-9.096-9.92c0.043-4.516,3.479-8.439,7.443-9.094c2.072-0.348,5.543-0.183,7.442,0.824
	C39.753,2093.231,40.642,2095.63,41.343,2098.105z"/>
<linearGradient id="SVGID_37_" gradientUnits="userSpaceOnUse" x1="4122.3213" y1="4177.3481" x2="4141.5391" y2="4177.3481" gradientTransform="matrix(-4.371139e-008 1 -1 -4.371139e-008 4203.0547 -1985.5251)">
	<stop  offset="0" style="stop-color:#662483"/>
	<stop  offset="0.0391" style="stop-color:#662F88"/>
	<stop  offset="0.1768" style="stop-color:#61539F"/>
	<stop  offset="0.3165" style="stop-color:#5970B4"/>
	<stop  offset="0.4556" style="stop-color:#4F86C6"/>
	<stop  offset="0.5938" style="stop-color:#4696D2"/>
	<stop  offset="0.7311" style="stop-color:#3EA1DA"/>
	<stop  offset="0.867" style="stop-color:#38A7DF"/>
	<stop  offset="1" style="stop-color:#36A9E1"/>
</linearGradient>
<path fill-rule="evenodd" clip-rule="evenodd" fill="url(#SVGID_37_)" d="M34.729,2145.238c0.005,0.018,0.829-0.014,0.829,0
	c-0.063,4.993-3.095,10.354-9.097,10.75c-8.751,0.573-12.196-8.512-9.924-14.059c0.163-0.392,1.515-0.516,1.655-0.826
	c0.164-0.361-0.26-1.375,0-1.652c3.511-3.8,11.994-3.271,14.885,0c0.471,0.535,0.362,1.17,0.824,1.652
	C34.325,2141.542,34.392,2142.848,34.729,2145.238z"/>
<linearGradient id="SVGID_38_" gradientUnits="userSpaceOnUse" x1="3612.376" y1="4042.3989" x2="3903.9822" y2="4042.3989" gradientTransform="matrix(-4.371139e-008 1 -1 -4.371139e-008 4203.0547 -1985.5251)">
	<stop  offset="0" style="stop-color:#662483"/>
	<stop  offset="0.0391" style="stop-color:#662F88"/>
	<stop  offset="0.1768" style="stop-color:#61539F"/>
	<stop  offset="0.3165" style="stop-color:#5970B4"/>
	<stop  offset="0.4556" style="stop-color:#4F86C6"/>
	<stop  offset="0.5938" style="stop-color:#4696D2"/>
	<stop  offset="0.7311" style="stop-color:#3EA1DA"/>
	<stop  offset="0.867" style="stop-color:#38A7DF"/>
	<stop  offset="1" style="stop-color:#36A9E1"/>
</linearGradient>
<path fill-rule="evenodd" clip-rule="evenodd" fill="url(#SVGID_38_)" d="M277.829,1633.408c-4.618,4.431-5.251,9.662-8.268,15.71
	c-3.194-0.161-6.093-0.025-8.271,0.826c-12.044,12.371-21.216,22.046-33.072,33.901c-4.556,4.561-9.59,7.613-10.75,12.404
	c-2.037,8.396,2.601,21.621,0,28.942c-1.227,3.445-5.314,6.141-9.099,9.92c-3.526,3.531-6.378,7.208-9.094,9.924
	c-4.339,4.341-15.175,16.859-20.67,18.19c-10.509,2.549-22.573-1.854-34.728,0c2.787-8.257,1.651-17.451,1.651-26.458
	c0-8.235-1.834-22.281,0-28.942c0.818-2.972,4.296-5.121,7.444-8.268c6.219-6.223,10.421-10.426,15.708-15.713
	c2.688-2.684,4.57-6.411,8.271-7.439c7.169,4.123,13.429,5.872,20.669,4.136c8.016-1.925,16.528-9.155,19.018-15.712
	c3.392-8.931,0.67-20.317-3.307-25.632c-3.48-4.648-9.914-9.516-15.711-10.748c-3.81-0.815-9.441-0.637-12.4,0
	c-5.759,1.227-13.991,8.065-16.54,12.401c-4.277,7.282-4.296,17.749-0.824,25.633c-1.875,4.595-5.71,6.532-8.271,9.096
	c-6.031,6.029-10.965,11.79-17.363,18.19c-3.55,3.549-7.294,5.894-8.271,9.922c-1.726,7.13,0,18.398,0,24.806
	c0,7.415,1.803,19.093,0,25.635c-0.781,2.84-5.377,7.031-9.094,10.748c-9.269,9.269-16.909,17.447-25.634,25.634
	c-2.283,2.141-3.871,3.474-6.612,4.132c-6.952,1.675-14.45,0-20.676,0c-6.317,0-14.271-1.579-20.671,0
	c-3.184,0.787-6.691,4.283-9.924,7.442c-8.314,8.14-14.765,16.212-22.322,23.152c-1.063,0.973-2.925,3.703-4.962,2.479
	c1.825-11.881-2.552-20.464,0-29.767c0.942-3.432,7.152-8.804,10.75-12.403c12.231-12.233,24.838-24.305,35.552-34.727
	c18.015,11.638,38.74-2.178,38.865-20.674c0.015-2.233-1.117-8.5-1.654-9.922c-0.473-1.257-2.109-2.444-3.306-4.133
	c-2.761-3.896-3.635-5.253-7.44-7.443c-6.872-3.954-18.236-4.199-24.808-0.826c-0.921,0.472-1.499,1.776-2.48,2.48
	c-0.969,0.694-2.796,1.152-3.308,1.656c-3.631,3.541-7.453,11.942-7.444,18.188c0.011,6.223,2.825,8.504,4.136,14.886
	c-12.442,12.456-23.419,24.417-36.384,36.381c-4.305,3.977-10.418,8.611-11.572,13.229c-1.273,5.076,0,14.018,0,21.498
	c0,7.055,1.604,15.664,0,21.498c-0.538,1.953-2.25,4.113-4.478,6.36c0.709,4.812,1.174,9.64,1.459,14.478
	c9.658-9.501,19.41-19.039,29.475-29.105c6.297-6.293,13.767-15.623,19.846-20.672c4.636-3.845,15.736-1.652,23.98-1.652
	c6.9,0,15.605,1.453,21.498,0c5.357-1.32,11.383-9.151,14.884-12.404c2.814-2.613,1.889-3.192,5.788-4.132
	c5.825-1.405,14.152,0,20.672,0h41.345c6.928,0,14.138,1.106,19.842-0.828c4.985-1.691,9.094-7.822,14.058-12.402
	c5.031-4.645,9.443-10.114,13.229-14.058c4.481-4.663,9.596-8.764,14.061-13.23c4.42-4.421,8.346-10.129,14.056-13.228
	c12.586,7.085,24.804-1.228,24.804-12.402c0-9.178-7.813-15.894-15.708-15.714c-9.823,0.225-17.731,9.014-14.06,23.154
	c-14.036,14.771-31.016,31.637-46.303,46.304c-3.213,3.082-2.972,4.712-7.441,5.788c-5.053,1.218-11.925,0-18.192,0h-55.396
	c2.45-5.391,8.662-3.977,13.229-4.136c12.255-0.427,23.015,0,34.726,0c5.798,0,13.091,1.179,17.365,0
	c3.149-0.867,9.457-7.802,13.229-11.576c11.624-11.622,20.839-21.19,31.422-32.246c3.102-3.245,4.721-3.013,5.786-7.442
	c1.771-7.334-2.104-16.4,0-23.978c0.705-2.532,3.361-4.901,4.964-6.618c1.743-1.869,3.891-3.922,6.612-4.958
	c0.609,3.995,3.087,6.011,4.964,7.44c10.239,7.822,24.528,0.07,24.804-11.575c0.2-8.478-6.575-17.876-19.016-15.713
	c-3.525,0.612-6,3.291-8.271,5.79c-1.28,1.406-1.312,3.31-2.481,4.959c-1.018,1.443-2.93,1.988-4.134,3.311
	c-3.837,4.212-11.871,10.105-13.229,15.712c-1.931,7.958,1.97,16.816,0,23.977c-0.923,3.355-6.907,8.558-10.75,12.404
	c-8.026,8.029-16.235,16.232-23.979,23.978c-3.617,3.614-9.188,9.771-13.229,10.752c-6.75,1.635-16.934,0-25.636,0
	c-9.364,0-18.3,0.655-25.631-0.828c3.823-6.343,14.216-4.138,23.15-4.138h27.288c7.273-7.514,13.948-14.954,21.5-21.498
	c1.117-0.966,1.856-1.758,2.48-2.479c3.699-4.27,8.156-7.934,11.576-11.577c2.199-2.346,3.489-3.939,4.134-6.614
	c2.101-8.714-2.318-20.605,0-28.942c1.041-3.748,6.333-7.158,10.75-11.576c8.87-8.865,14.587-14.587,22.324-22.322
	c3.72-3.72,6.889-9.942,13.231-9.098c2.811,2.475,2.316,6.783,4.133,9.924c0.53,0.913,2.41,2.278,3.309,3.307
	c2.367,2.723,3.521,3.65,5.787,4.96c1.397,0.812,3.168,2.188,4.136,2.483c0.731,0.221,2.333,0.797,2.479,0.826
	c8.076,1.556,14.179-1.022,18.191-3.31c1.877-1.065,4.576-2.095,5.788-3.305c0.643-0.644,0.277-1.693,0.826-2.479
	c0.476-0.682,2.031-0.938,2.48-1.656c2.141-3.42,4.157-9.716,4.136-14.056C320.715,1628.821,292.376,1619.452,277.829,1633.408z"/>
<linearGradient id="SVGID_39_" gradientUnits="userSpaceOnUse" x1="3612.3799" y1="4166.4731" x2="3903.9829" y2="4166.4731" gradientTransform="matrix(-4.371139e-008 1 -1 -4.371139e-008 4203.0547 -1985.5251)">
	<stop  offset="0" style="stop-color:#662483"/>
	<stop  offset="0.0391" style="stop-color:#662F88"/>
	<stop  offset="0.1768" style="stop-color:#61539F"/>
	<stop  offset="0.3165" style="stop-color:#5970B4"/>
	<stop  offset="0.4556" style="stop-color:#4F86C6"/>
	<stop  offset="0.5938" style="stop-color:#4696D2"/>
	<stop  offset="0.7311" style="stop-color:#3EA1DA"/>
	<stop  offset="0.867" style="stop-color:#38A7DF"/>
	<stop  offset="1" style="stop-color:#36A9E1"/>
</linearGradient>
<path fill-rule="evenodd" clip-rule="evenodd" fill="url(#SVGID_39_)" d="M57.058,1848.396
	c-11.897-0.064-19.529,12.148-13.232,23.979c-3.453,4.655-8.198,8.195-13.229,13.229c-4.124,4.121-8.201,10.981-14.06,12.401
	c-3.635,0.88-8.99,0-13.228,0H1.47c-0.103,1.931-0.206,3.859-0.311,5.788h2.979c5.167,0,11.921,1.039,15.709,0
	c5.081-1.392,9.28-8.453,14.055-13.229c2.98-2.981,11.303-12.555,14.884-13.229c1.451-0.272,2.899,1.317,4.962,1.652
	c6.956,1.128,10.813-0.935,14.059-4.135C76.022,1866.757,72.049,1848.468,57.058,1848.396z"/>
<linearGradient id="SVGID_40_" gradientUnits="userSpaceOnUse" x1="3620.5879" y1="3907.3735" x2="3653.7461" y2="3907.3735" gradientTransform="matrix(-4.371139e-008 1 -1 -4.371139e-008 4203.0547 -1985.5251)">
	<stop  offset="0" style="stop-color:#662483"/>
	<stop  offset="0.0391" style="stop-color:#662F88"/>
	<stop  offset="0.1768" style="stop-color:#61539F"/>
	<stop  offset="0.3165" style="stop-color:#5970B4"/>
	<stop  offset="0.4556" style="stop-color:#4F86C6"/>
	<stop  offset="0.5938" style="stop-color:#4696D2"/>
	<stop  offset="0.7311" style="stop-color:#3EA1DA"/>
	<stop  offset="0.867" style="stop-color:#38A7DF"/>
	<stop  offset="1" style="stop-color:#36A9E1"/>
</linearGradient>
<path fill-rule="evenodd" clip-rule="evenodd" fill="url(#SVGID_40_)" d="M310.901,1647.466c0.025,0.104,0.746,0.198,0.831,0.826
	c1.534,11.583-6.303,20.918-18.19,19.844c-19.531-1.762-18.582-33.049,1.652-33.074
	C301.869,1635.054,308.925,1638.837,310.901,1647.466z"/>
<linearGradient id="SVGID_41_" gradientUnits="userSpaceOnUse" x1="3664.376" y1="3938.9351" x2="3683.0625" y2="3938.9351" gradientTransform="matrix(-4.371139e-008 1 -1 -4.371139e-008 4203.0547 -1985.5251)">
	<stop  offset="0" style="stop-color:#662483"/>
	<stop  offset="0.0391" style="stop-color:#662F88"/>
	<stop  offset="0.1768" style="stop-color:#61539F"/>
	<stop  offset="0.3165" style="stop-color:#5970B4"/>
	<stop  offset="0.4556" style="stop-color:#4F86C6"/>
	<stop  offset="0.5938" style="stop-color:#4696D2"/>
	<stop  offset="0.7311" style="stop-color:#3EA1DA"/>
	<stop  offset="0.867" style="stop-color:#38A7DF"/>
	<stop  offset="1" style="stop-color:#36A9E1"/>
</linearGradient>
<path fill-rule="evenodd" clip-rule="evenodd" fill="url(#SVGID_41_)" d="M272.866,1685.5c0.068,0.238,0.786,0.053,0.828,0.826
	c0.838,15.532-21.222,14.352-19.017,0C255.912,1678.282,269.848,1674.939,272.866,1685.5z"/>
<linearGradient id="SVGID_42_" gradientUnits="userSpaceOnUse" x1="3699.9668" y1="3938.9731" x2="3719.8154" y2="3938.9731" gradientTransform="matrix(-4.371139e-008 1 -1 -4.371139e-008 4203.0547 -1985.5251)">
	<stop  offset="0" style="stop-color:#662483"/>
	<stop  offset="0.0391" style="stop-color:#662F88"/>
	<stop  offset="0.1768" style="stop-color:#61539F"/>
	<stop  offset="0.3165" style="stop-color:#5970B4"/>
	<stop  offset="0.4556" style="stop-color:#4F86C6"/>
	<stop  offset="0.5938" style="stop-color:#4696D2"/>
	<stop  offset="0.7311" style="stop-color:#3EA1DA"/>
	<stop  offset="0.867" style="stop-color:#38A7DF"/>
	<stop  offset="1" style="stop-color:#36A9E1"/>
</linearGradient>
<path fill-rule="evenodd" clip-rule="evenodd" fill="url(#SVGID_42_)" d="M272.866,1721.882c0.109,0.419,0.832,0.697,0.828,1.655
	c-0.018,5.404-3.629,10.554-9.097,10.747c-4.595,0.166-9.271-4.279-9.92-7.44c-1.142-5.524,2.51-12.319,9.096-12.402
	C266.778,1714.401,271.212,1715.466,272.866,1721.882z"/>
<linearGradient id="SVGID_43_" gradientUnits="userSpaceOnUse" x1="3624.7236" y1="4011.6987" x2="3655.1094" y2="4011.6987" gradientTransform="matrix(-4.371139e-008 1 -1 -4.371139e-008 4203.0547 -1985.5251)">
	<stop  offset="0" style="stop-color:#662483"/>
	<stop  offset="0.0391" style="stop-color:#662F88"/>
	<stop  offset="0.1768" style="stop-color:#61539F"/>
	<stop  offset="0.3165" style="stop-color:#5970B4"/>
	<stop  offset="0.4556" style="stop-color:#4F86C6"/>
	<stop  offset="0.5938" style="stop-color:#4696D2"/>
	<stop  offset="0.7311" style="stop-color:#3EA1DA"/>
	<stop  offset="0.867" style="stop-color:#38A7DF"/>
	<stop  offset="1" style="stop-color:#36A9E1"/>
</linearGradient>
<path fill-rule="evenodd" clip-rule="evenodd" fill="url(#SVGID_43_)" d="M205.892,1651.6c0.505,2.601,0.602,8.149-1.654,11.577
	c-1.574,2.39-5.591,5.313-7.439,5.786c-13.313,3.388-22.392-7.678-19.845-19.02c-0.081,0.358,3.245-5.798,4.133-6.614
	c2.116-1.953,7.713-4.154,10.747-4.132C199.597,1639.251,204.513,1644.488,205.892,1651.6z"/>
<linearGradient id="SVGID_44_" gradientUnits="userSpaceOnUse" x1="3699.1406" y1="4129.2603" x2="3732.2158" y2="4129.2603" gradientTransform="matrix(-4.371139e-008 1 -1 -4.371139e-008 4203.0547 -1985.5251)">
	<stop  offset="0" style="stop-color:#662483"/>
	<stop  offset="0.0391" style="stop-color:#662F88"/>
	<stop  offset="0.1768" style="stop-color:#61539F"/>
	<stop  offset="0.3165" style="stop-color:#5970B4"/>
	<stop  offset="0.4556" style="stop-color:#4F86C6"/>
	<stop  offset="0.5938" style="stop-color:#4696D2"/>
	<stop  offset="0.7311" style="stop-color:#3EA1DA"/>
	<stop  offset="0.867" style="stop-color:#38A7DF"/>
	<stop  offset="1" style="stop-color:#36A9E1"/>
</linearGradient>
<path fill-rule="evenodd" clip-rule="evenodd" fill="url(#SVGID_44_)" d="M89.301,1725.192c1.43,5.31,0.86,8.752-0.823,12.404
	c-1.205,2.604-3.264,4.525-6.616,6.611c-1.261,0.784-4.084,2.423-7.442,2.48c-9.734,0.162-19.02-8.099-16.537-20.67
	c1.118-5.662,7.763-12.275,15.714-12.402c1.64-0.027,6.294,0.761,8.266,1.652c0.38,0.175,0.52,1.517,0.826,1.653
	C85.533,1718.205,88.009,1720.378,89.301,1725.192z"/>
<linearGradient id="SVGID_45_" gradientUnits="userSpaceOnUse" x1="3839.7441" y1="4146.5122" x2="3858.5771" y2="4146.5122" gradientTransform="matrix(-4.371139e-008 1 -1 -4.371139e-008 4203.0547 -1985.5251)">
	<stop  offset="0" style="stop-color:#662483"/>
	<stop  offset="0.0391" style="stop-color:#662F88"/>
	<stop  offset="0.1768" style="stop-color:#61539F"/>
	<stop  offset="0.3165" style="stop-color:#5970B4"/>
	<stop  offset="0.4556" style="stop-color:#4F86C6"/>
	<stop  offset="0.5938" style="stop-color:#4696D2"/>
	<stop  offset="0.7311" style="stop-color:#3EA1DA"/>
	<stop  offset="0.867" style="stop-color:#38A7DF"/>
	<stop  offset="1" style="stop-color:#36A9E1"/>
</linearGradient>
<path fill-rule="evenodd" clip-rule="evenodd" fill="url(#SVGID_45_)" d="M65.323,1860.798c4.665,15.489-18.034,15.957-18.191,3.307
	C47.021,1854.875,61.783,1849.027,65.323,1860.798z"/>
</svg>
