<?xml version="1.0" encoding="utf-8"?>
<!-- Generator: Adobe Illustrator 15.0.0, SVG Export Plug-In  -->
<!DOCTYPE svg PUBLIC "-//W3C//DTD SVG 1.1//EN" "http://www.w3.org/Graphics/SVG/1.1/DTD/svg11.dtd" [
	<!ENTITY ns_flows "http://ns.adobe.com/Flows/1.0/">
]>
<svg version="1.1"
	 xmlns="http://www.w3.org/2000/svg" xmlns:xlink="http://www.w3.org/1999/xlink" xmlns:a="http://ns.adobe.com/AdobeSVGViewerExtensions/3.0/"
	 x="0px" y="0px" width="1366px" height="768px" viewBox="-15.981 1573.728 1366 768"
	 enable-background="new -15.981 1573.728 1366 768" xml:space="preserve">
<defs>
</defs>
<linearGradient id="SVGID_1_" gradientUnits="userSpaceOnUse" x1="1166.293" y1="1148.1597" x2="2858.2559" y2="1148.1597">
	<stop  offset="0" style="stop-color:#009FE3"/>
	<stop  offset="0.0042" style="stop-color:#009CE1"/>
	<stop  offset="0.0479" style="stop-color:#0086C4"/>
	<stop  offset="0.0957" style="stop-color:#0070AA"/>
	<stop  offset="0.148" style="stop-color:#005C94"/>
	<stop  offset="0.2046" style="stop-color:#004C83"/>
	<stop  offset="0.2668" style="stop-color:#0C3E75"/>
	<stop  offset="0.3367" style="stop-color:#1E336B"/>
	<stop  offset="0.4175" style="stop-color:#242C64"/>
	<stop  offset="0.5162" style="stop-color:#27275F"/>
	<stop  offset="0.652" style="stop-color:#28245D"/>
	<stop  offset="1" style="stop-color:#29235C"/>
</linearGradient>
<linearGradient id="SVGID_2_" gradientUnits="userSpaceOnUse" x1="719.6045" y1="1731.7935" x2="922.3096" y2="1731.7935">
	<stop  offset="0" style="stop-color:#36A9E1"/>
	<stop  offset="0.3459" style="stop-color:#257DC1"/>
	<stop  offset="0.7953" style="stop-color:#294898"/>
	<stop  offset="1" style="stop-color:#27348B"/>
</linearGradient>
<path fill-rule="evenodd" clip-rule="evenodd" fill="url(#SVGID_2_)" d="M830.165,1682.655c0-2.045,0-4.098,0-6.144
	c6.148,0,12.287,0,18.43,0c20.93,30.254,52.779,49.595,73.715,79.855c-66.232,11.576-134.166,21.444-202.705,30.71
	c34.108-41.649,87.445-64.065,122.848-104.422C838.359,1682.655,834.258,1682.655,830.165,1682.655z"/>
<linearGradient id="SVGID_3_" gradientUnits="userSpaceOnUse" x1="504.6162" y1="1943.7134" x2="689.8984" y2="1943.7134">
	<stop  offset="0" style="stop-color:#36A9E1"/>
	<stop  offset="0.3459" style="stop-color:#257DC1"/>
	<stop  offset="0.7953" style="stop-color:#294898"/>
	<stop  offset="1" style="stop-color:#27348B"/>
</linearGradient>
<path fill-rule="evenodd" clip-rule="evenodd" fill="url(#SVGID_3_)" d="M523.04,1860.793
	c45.233-6.016,111.708-43.865,165.851-61.43c6.524,88.457-20.37,196.648-30.711,288.699
	c-47.232-58.222-101.008-180.208-141.278-202.705c-2.054,0-4.093,0-6.146,0c0-4.098,0-8.19,0-12.284
	c9.453-3.251,0.385-6.407-6.139-6.144C505.648,1859.777,514.313,1860.262,523.04,1860.793z"/>
<linearGradient id="SVGID_4_" gradientUnits="userSpaceOnUse" x1="369.4746" y1="1869.5063" x2="455.4756" y2="1869.5063">
	<stop  offset="0" style="stop-color:#36A9E1"/>
	<stop  offset="0.3459" style="stop-color:#257DC1"/>
	<stop  offset="0.7953" style="stop-color:#294898"/>
	<stop  offset="1" style="stop-color:#27348B"/>
</linearGradient>
<path fill-rule="evenodd" clip-rule="evenodd" fill="url(#SVGID_4_)" d="M369.475,1873.074c16.558-14.158,59.241-2.175,86.001-6.144
	c0,2.047,0,4.102,0,6.144c-14.339,0-28.667,0-42.998,0C398.138,1873.074,383.813,1873.074,369.475,1873.074z"/>
<linearGradient id="SVGID_5_" gradientUnits="userSpaceOnUse" x1="455.4756" y1="1869.9946" x2="514.834" y2="1869.9946">
	<stop  offset="0" style="stop-color:#36A9E1"/>
	<stop  offset="0.3459" style="stop-color:#257DC1"/>
	<stop  offset="0.7953" style="stop-color:#294898"/>
	<stop  offset="1" style="stop-color:#27348B"/>
</linearGradient>
<path fill-rule="evenodd" clip-rule="evenodd" fill="url(#SVGID_5_)" d="M455.476,1873.074c0-2.042,0-4.097,0-6.144
	c16.372,0,32.761,0,49.141,0c6.523-0.264,15.592,2.893,6.139,6.144C492.325,1873.074,473.901,1873.074,455.476,1873.074z"/>
<linearGradient id="SVGID_6_" gradientUnits="userSpaceOnUse" x1="185.1973" y1="1934.0806" x2="320.3477" y2="1934.0806">
	<stop  offset="0" style="stop-color:#36A9E1"/>
	<stop  offset="0.3459" style="stop-color:#257DC1"/>
	<stop  offset="0.7953" style="stop-color:#294898"/>
	<stop  offset="1" style="stop-color:#27348B"/>
</linearGradient>
<path fill-rule="evenodd" clip-rule="evenodd" fill="url(#SVGID_6_)" d="M185.197,1879.217
	c33.659-13.439,91.476-2.711,135.135-6.144c0.267,8.46-2.888,13.488-6.141,18.43c-32.132,8.816-40.496,41.396-67.566,55.281
	c-24.996,11.848-31.364,42.346-61.428,49.143C185.197,1957.027,185.197,1918.121,185.197,1879.217z"/>
<linearGradient id="SVGID_7_" gradientUnits="userSpaceOnUse" x1="332.6221" y1="1876.5259" x2="412.4775" y2="1876.5259">
	<stop  offset="0" style="stop-color:#36A9E1"/>
	<stop  offset="0.3459" style="stop-color:#257DC1"/>
	<stop  offset="0.7953" style="stop-color:#294898"/>
	<stop  offset="1" style="stop-color:#27348B"/>
</linearGradient>
<path fill-rule="evenodd" clip-rule="evenodd" fill="url(#SVGID_7_)" d="M332.622,1879.217c1.354-4.791,5.142-7.146,12.282-6.144
	c8.2,0,16.379,0,24.57,0c14.339,0,28.663,0,43.003,0C397.937,1887.205,357.347,1875.276,332.622,1879.217z"/>
<linearGradient id="SVGID_8_" gradientUnits="userSpaceOnUse" x1="515.9209" y1="1943.7134" x2="524.0146" y2="1943.7134">
	<stop  offset="0" style="stop-color:#36A9E1"/>
	<stop  offset="0.3459" style="stop-color:#257DC1"/>
	<stop  offset="0.7953" style="stop-color:#294898"/>
	<stop  offset="1" style="stop-color:#27348B"/>
</linearGradient>
<path fill-rule="evenodd" clip-rule="evenodd" fill="url(#SVGID_8_)" d="M516.901,1909.93c14.057,10.518,2.248,46.894,6.139,67.565
	C508.974,1966.983,520.785,1930.604,516.901,1909.93z"/>
<linearGradient id="SVGID_9_" gradientUnits="userSpaceOnUse" x1="522.042" y1="2066.5649" x2="530.1777" y2="2066.5649">
	<stop  offset="0" style="stop-color:#36A9E1"/>
	<stop  offset="0.3459" style="stop-color:#257DC1"/>
	<stop  offset="0.7953" style="stop-color:#294898"/>
	<stop  offset="1" style="stop-color:#27348B"/>
</linearGradient>
<path fill-rule="evenodd" clip-rule="evenodd" fill="url(#SVGID_9_)" d="M523.04,2020.494c14.173,18.584,2.159,63.36,6.143,92.144
	C515.007,2094.048,527.019,2049.277,523.04,2020.494z"/>
<linearGradient id="SVGID_10_" gradientUnits="userSpaceOnUse" x1="547.6094" y1="2167.9175" x2="846.2617" y2="2167.9175">
	<stop  offset="0" style="stop-color:#36A9E1"/>
	<stop  offset="0.3459" style="stop-color:#257DC1"/>
	<stop  offset="0.7953" style="stop-color:#294898"/>
	<stop  offset="1" style="stop-color:#27348B"/>
</linearGradient>
<path fill-rule="evenodd" clip-rule="evenodd" fill="url(#SVGID_10_)" d="M836.313,2057.349c12.635,0.39,11.492,3.78,6.139,12.286
	c-39.04,62.023-120.342,140.197-165.848,208.851c-43.002,0-85.996,0-128.995,0c49.018-45.167,108.145-80.233,159.708-122.856
	c35.823-25.606,72.986-49.866,104.418-79.85C819.906,2069.612,834.593,2069.972,836.313,2057.349z"/>
<linearGradient id="SVGID_11_" gradientUnits="userSpaceOnUse" x1="528.1777" y1="2189.4146" x2="536.3281" y2="2189.4146">
	<stop  offset="0" style="stop-color:#36A9E1"/>
	<stop  offset="0.3459" style="stop-color:#257DC1"/>
	<stop  offset="0.7953" style="stop-color:#294898"/>
	<stop  offset="1" style="stop-color:#27348B"/>
</linearGradient>
<path fill-rule="evenodd" clip-rule="evenodd" fill="url(#SVGID_11_)" d="M529.183,2137.204
	c14.201,22.646,2.143,71.572,6.145,104.422C521.118,2218.984,533.184,2170.056,529.183,2137.204z"/>
<linearGradient id="SVGID_12_" gradientUnits="userSpaceOnUse" x1="19.3506" y1="1817.7935" x2="510.7549" y2="1817.7935">
	<stop  offset="0" style="stop-color:#36A9E1"/>
	<stop  offset="0.3459" style="stop-color:#257DC1"/>
	<stop  offset="0.7953" style="stop-color:#294898"/>
	<stop  offset="1" style="stop-color:#27348B"/>
</linearGradient>
<path fill-rule="evenodd" clip-rule="evenodd" fill="url(#SVGID_12_)" d="M50.063,1916.076
	c15.901-41.43,65.683-48.977,128.996-43.002c17.141-120.04,105.523-168.835,178.134-233.415c51.188,0,102.37,0,153.562,0
	c-52.488,74.459-114.07,139.825-165.851,214.988c-27.402-5.606,13.632-144.49,12.289-202.705
	c-59.478,49.06-117.946,152.313-171.996,227.275c0,38.903,0,77.81,0,116.71c-4.089,0-8.19,0-12.284,0
	c-56.637-8.884-98.302-32.735-153.563-43c7.629-12.847,17.863-23.09,30.713-30.712c-3.446,8.85-9.586,14.991-18.427,18.425
	c38.965-2.044,93.602-41.476,141.276-55.282C125.286,1864.465,67.451,1886.29,50.063,1916.076z"/>
<linearGradient id="SVGID_13_" gradientUnits="userSpaceOnUse" x1="1192.5791" y1="2103.4204" x2="1346.1426" y2="2103.4204">
	<stop  offset="0" style="stop-color:#36A9E1"/>
	<stop  offset="0.3459" style="stop-color:#257DC1"/>
	<stop  offset="0.7953" style="stop-color:#294898"/>
	<stop  offset="1" style="stop-color:#27348B"/>
</linearGradient>
<path fill-rule="evenodd" clip-rule="evenodd" fill="url(#SVGID_13_)" d="M1192.579,2192.487
	c1.506-47.497,78.969-130.929,79.857-171.993c-0.018,0.716-24.072,0.872-18.429-6.139c47.856,24.287,86.729,88.705,92.135,135.136
	C1307.353,2129.908,1242.802,2183.324,1192.579,2192.487z"/>
<linearGradient id="SVGID_14_" gradientUnits="userSpaceOnUse" x1="848.5947" y1="1716.439" x2="928.4492" y2="1716.439">
	<stop  offset="0" style="stop-color:#36A9E1"/>
	<stop  offset="0.3459" style="stop-color:#257DC1"/>
	<stop  offset="0.7953" style="stop-color:#294898"/>
	<stop  offset="1" style="stop-color:#27348B"/>
</linearGradient>
<path fill-rule="evenodd" clip-rule="evenodd" fill="url(#SVGID_14_)" d="M848.595,1676.511
	c29.194,24.052,55.803,50.674,79.854,79.855c-2.052,0-4.091,0-6.14,0C901.374,1726.106,869.524,1706.765,848.595,1676.511z"/>
<linearGradient id="SVGID_15_" gradientUnits="userSpaceOnUse" x1="185.1973" y1="1765.5796" x2="357.2256" y2="1765.5796">
	<stop  offset="0" style="stop-color:#36A9E1"/>
	<stop  offset="0.3459" style="stop-color:#257DC1"/>
	<stop  offset="0.7953" style="stop-color:#294898"/>
	<stop  offset="1" style="stop-color:#27348B"/>
</linearGradient>
<path fill-rule="evenodd" clip-rule="evenodd" fill="url(#SVGID_15_)" d="M185.197,1879.217
	c54.05-74.963,112.519-178.216,171.996-227.275c1.343,58.215-39.691,197.099-12.289,202.705
	c-5.335,8.993-9.192,19.472-24.572,18.427C276.673,1876.506,218.856,1865.778,185.197,1879.217z"/>
<linearGradient id="SVGID_16_" gradientUnits="userSpaceOnUse" x1="314.1914" y1="1765.5806" x2="645.8896" y2="1765.5806">
	<stop  offset="0" style="stop-color:#36A9E1"/>
	<stop  offset="0.3459" style="stop-color:#257DC1"/>
	<stop  offset="0.7953" style="stop-color:#294898"/>
	<stop  offset="1" style="stop-color:#27348B"/>
</linearGradient>
<path fill-rule="evenodd" clip-rule="evenodd" fill="url(#SVGID_16_)" d="M510.755,1639.659
	c54.249,19.467,89.906,57.509,135.135,85.99c-13.781,14.887-24.623,32.708-42.998,43.003c4.159-14.276,20.418-16.44,24.576-30.713
	c-94.924,44.31-193.79,84.67-282.563,135.135c-7.141-1.003-10.929,1.353-12.282,6.144c0,4.095,0,8.185,0,12.286
	c-8.071-7.372-9.655-2.395-18.431,0c3.253-4.941,6.407-9.97,6.141-18.43c15.38,1.045,19.237-9.434,24.572-18.427
	C396.685,1779.484,458.267,1714.118,510.755,1639.659z"/>
<linearGradient id="SVGID_17_" gradientUnits="userSpaceOnUse" x1="523.04" y1="1771.7241" x2="842.4521" y2="1771.7241">
	<stop  offset="0" style="stop-color:#36A9E1"/>
	<stop  offset="0.3459" style="stop-color:#257DC1"/>
	<stop  offset="0.7953" style="stop-color:#294898"/>
	<stop  offset="1" style="stop-color:#27348B"/>
</linearGradient>
<path fill-rule="evenodd" clip-rule="evenodd" fill="url(#SVGID_17_)" d="M658.18,1719.509
	c63.163-6.451,108.828-30.406,171.985-36.854c4.093,0,8.194,0,12.287,0c-35.402,40.356-88.739,62.772-122.848,104.422
	c-4.094,0-8.193,0-12.287,0c-4.955,5.287-16.83,3.651-18.427,12.287c-54.143,17.564-120.617,55.414-165.851,61.43
	c25.848-31.486,56.641-58.025,79.852-92.142c18.375-10.295,29.217-28.116,42.998-43.003
	C650.876,1724.484,652.007,1719.492,658.18,1719.509z"/>
<linearGradient id="SVGID_18_" gradientUnits="userSpaceOnUse" x1="344.9043" y1="1805.5063" x2="627.4678" y2="1805.5063">
	<stop  offset="0" style="stop-color:#36A9E1"/>
	<stop  offset="0.3459" style="stop-color:#257DC1"/>
	<stop  offset="0.7953" style="stop-color:#294898"/>
	<stop  offset="1" style="stop-color:#27348B"/>
</linearGradient>
<path fill-rule="evenodd" clip-rule="evenodd" fill="url(#SVGID_18_)" d="M602.892,1768.652
	c-23.211,34.116-54.004,60.655-79.852,92.142c-8.727-0.531-17.392-1.017-18.424,6.137c-16.38,0-32.769,0-49.141,0
	c-26.76,3.969-69.443-8.015-86.001,6.144c-8.191,0-16.37,0-24.57,0c88.773-50.465,187.64-90.825,282.563-135.135
	C623.31,1752.211,607.051,1754.375,602.892,1768.652z"/>
<linearGradient id="SVGID_19_" gradientUnits="userSpaceOnUse" x1="707.3174" y1="1790.1509" x2="941.0342" y2="1790.1509">
	<stop  offset="0" style="stop-color:#36A9E1"/>
	<stop  offset="0.3459" style="stop-color:#257DC1"/>
	<stop  offset="0.7953" style="stop-color:#294898"/>
	<stop  offset="1" style="stop-color:#27348B"/>
</linearGradient>
<path fill-rule="evenodd" clip-rule="evenodd" fill="url(#SVGID_19_)" d="M922.31,1756.367c2.049,0,4.088,0,6.14,0
	c5.462,15.013,14.314,26.631,12.29,49.137c0,6.145,0,12.289,0,18.431c-74.739-9.215-146.4-21.502-221.135-30.715
	c-16.644,5.553,14.046,13.745,12.286,24.573c-10.54-7.905-24.15-12.7-24.573-30.716c4.094,0,8.193,0,12.287,0
	C788.144,1777.811,856.077,1767.943,922.31,1756.367z"/>
<linearGradient id="SVGID_20_" gradientUnits="userSpaceOnUse" x1="714.6406" y1="1870.0024" x2="953.0205" y2="1870.0024">
	<stop  offset="0" style="stop-color:#36A9E1"/>
	<stop  offset="0.3459" style="stop-color:#257DC1"/>
	<stop  offset="0.7953" style="stop-color:#294898"/>
	<stop  offset="1" style="stop-color:#27348B"/>
</linearGradient>
<path fill-rule="evenodd" clip-rule="evenodd" fill="url(#SVGID_20_)" d="M799.459,1897.647
	c-17.965-31.182-54.696-43.593-67.568-79.854c1.76-10.828-28.93-19.021-12.286-24.573c74.734,9.213,146.396,21.5,221.135,30.715
	c0-6.142,0-12.286,0-18.431c5.729,4.509,9.303,11.169,12.281,18.431c-21.884,4.736-23.145,30.096-36.858,42.996
	c-8.649,28.206-28.505,45.211-42.991,67.568c-5.475,2.728-10.991,5.391-12.29,12.286
	C830.823,1939.989,824.46,1909.495,799.459,1897.647z"/>
<linearGradient id="SVGID_21_" gradientUnits="userSpaceOnUse" x1="799.459" y1="1934.5024" x2="873.1709" y2="1934.5024">
	<stop  offset="0" style="stop-color:#36A9E1"/>
	<stop  offset="0.3459" style="stop-color:#257DC1"/>
	<stop  offset="0.7953" style="stop-color:#294898"/>
	<stop  offset="1" style="stop-color:#27348B"/>
</linearGradient>
<path fill-rule="evenodd" clip-rule="evenodd" fill="url(#SVGID_21_)" d="M799.459,1897.647
	c25.001,11.848,31.364,42.342,61.422,49.138c1.299-6.896,6.815-9.559,12.29-12.286c-5.524,10.862-14.831,17.93-18.428,30.717
	c-4.981,1.166-6.115,6.16-12.291,6.143c2.723-5.467,5.393-10.984,12.291-12.291C839.991,1934.913,814.202,1921.805,799.459,1897.647
	z"/>
<linearGradient id="SVGID_22_" gradientUnits="userSpaceOnUse" x1="652.0303" y1="2121.8501" x2="861.2725" y2="2121.8501">
	<stop  offset="0" style="stop-color:#36A9E1"/>
	<stop  offset="0.3459" style="stop-color:#257DC1"/>
	<stop  offset="0.7953" style="stop-color:#294898"/>
	<stop  offset="1" style="stop-color:#27348B"/>
</linearGradient>
<path fill-rule="evenodd" clip-rule="evenodd" fill="url(#SVGID_22_)" d="M842.452,1971.358c6.176,0.018,7.31-4.977,12.291-6.143
	c10.891,11.621,4.473,40.564,6.138,61.423c0,8.188,0,16.384,0,24.568c-3.689,76.196-36.719,155.707-36.858,214.995
	c-1.159,4.969-6.16,6.121-6.135,12.284c-47.096,0-94.199,0-141.283,0c45.506-68.653,126.808-146.827,165.848-208.851
	c5.354-8.506,6.496-11.896-6.139-12.286c0.166-5.974,7.523-4.767,12.281-6.143c-61.934-4.563-138.638,29.224-196.564,49.14
	C712.746,2054.592,773.71,2009.09,842.452,1971.358z"/>
<linearGradient id="SVGID_23_" gradientUnits="userSpaceOnUse" x1="516.9014" y1="2026.6392" x2="854.7432" y2="2026.6392">
	<stop  offset="0" style="stop-color:#36A9E1"/>
	<stop  offset="0.3459" style="stop-color:#257DC1"/>
	<stop  offset="0.7953" style="stop-color:#294898"/>
	<stop  offset="1" style="stop-color:#27348B"/>
</linearGradient>
<path fill-rule="evenodd" clip-rule="evenodd" fill="url(#SVGID_23_)" d="M707.317,1787.077
	c0.423,18.016,14.033,22.811,24.573,30.716c12.872,36.262,49.604,48.673,67.568,79.854c14.743,24.158,40.532,37.266,55.284,61.42
	c-6.898,1.307-9.568,6.824-12.291,12.291c-68.742,37.732-129.706,83.234-190.422,128.988
	c-33.443,56.647-73.716,106.464-104.421,165.855c-11.36-0.928-3.765-20.798-12.282-24.576c-4.002-32.85,8.057-81.776-6.145-104.422
	c0-8.184,0-16.379,0-24.566c-3.983-28.783,8.03-73.56-6.143-92.144c0-14.328,0-28.665,0-42.998
	c-3.891-20.672,7.918-57.048-6.139-67.565c0-8.189,0-16.383,0-24.572c40.271,22.497,94.046,144.483,141.278,202.705
	c10.341-92.051,37.235-200.242,30.711-288.699C690.487,1790.728,702.362,1792.364,707.317,1787.077z"/>
<linearGradient id="SVGID_24_" gradientUnits="userSpaceOnUse" x1="860.8809" y1="1983.6411" x2="1155.7246" y2="1983.6411">
	<stop  offset="0" style="stop-color:#36A9E1"/>
	<stop  offset="0.3459" style="stop-color:#257DC1"/>
	<stop  offset="0.7953" style="stop-color:#294898"/>
	<stop  offset="1" style="stop-color:#27348B"/>
</linearGradient>
<path fill-rule="evenodd" clip-rule="evenodd" fill="url(#SVGID_24_)" d="M953.021,1830.077
	c33.697,42.059,68.226,83.287,104.419,122.851c11.602-30.177-11.978-77.986-12.287-116.709c-1.161-4.973-6.16-6.124-6.136-12.284
	c38.462,31.149,96.525,42.703,116.708,92.142c-5.974-0.171-4.761-7.52-6.145-12.286c-11.13,4.523-99.124,39.607-73.711,61.426
	c-4.088,0-8.192,0-12.284,0c-56.851,51.661-91.137,125.897-147.423,178.134c43.913-60.511,90.063-118.786,135.145-178.134
	c-63.301,28.842-141.52,42.76-190.426,85.991c0-8.185,0-16.381,0-24.568c37.987-45.968,44.805-123.098,79.858-171.991
	c-5.557-16.644-13.743,14.047-24.577,12.283c13.714-12.9,14.975-38.26,36.858-42.996
	C953.021,1825.976,953.021,1828.032,953.021,1830.077z"/>
<linearGradient id="SVGID_25_" gradientUnits="userSpaceOnUse" x1="953.0205" y1="1830.0767" x2="1045.1523" y2="1830.0767">
	<stop  offset="0" style="stop-color:#36A9E1"/>
	<stop  offset="0.3459" style="stop-color:#257DC1"/>
	<stop  offset="0.7953" style="stop-color:#294898"/>
	<stop  offset="1" style="stop-color:#27348B"/>
</linearGradient>
<path fill-rule="evenodd" clip-rule="evenodd" fill="url(#SVGID_25_)" d="M953.021,1830.077c0-2.045,0-4.101,0-6.143
	c28.66,0,57.332,0,85.996,0c-0.024,6.16,4.975,7.312,6.136,12.284C1024.97,1823.641,982.953,1832.898,953.021,1830.077z"/>
<linearGradient id="SVGID_26_" gradientUnits="userSpaceOnUse" x1="854.7432" y1="1938.1606" x2="940.7393" y2="1938.1606">
	<stop  offset="0" style="stop-color:#36A9E1"/>
	<stop  offset="0.3459" style="stop-color:#257DC1"/>
	<stop  offset="0.7953" style="stop-color:#294898"/>
	<stop  offset="1" style="stop-color:#27348B"/>
</linearGradient>
<path fill-rule="evenodd" clip-rule="evenodd" fill="url(#SVGID_26_)" d="M916.162,1866.93
	c10.834,1.764,19.021-28.927,24.577-12.283c-35.054,48.894-41.871,126.023-79.858,171.991c-1.665-20.858,4.753-49.802-6.138-61.423
	c3.597-12.787,12.903-19.854,18.428-30.717C887.657,1912.141,907.513,1895.136,916.162,1866.93z"/>
<linearGradient id="SVGID_27_" gradientUnits="userSpaceOnUse" x1="1071.2832" y1="1949.8579" x2="1161.8672" y2="1949.8579">
	<stop  offset="0" style="stop-color:#36A9E1"/>
	<stop  offset="0.3459" style="stop-color:#257DC1"/>
	<stop  offset="0.7953" style="stop-color:#294898"/>
	<stop  offset="1" style="stop-color:#27348B"/>
</linearGradient>
<path fill-rule="evenodd" clip-rule="evenodd" fill="url(#SVGID_27_)" d="M1075.869,1965.215
	c-25.413-21.818,62.581-56.902,73.711-61.426c1.384,4.767,0.171,12.115,6.145,12.286c0,4.093,0,8.183,0,12.282
	c3.851,18.662-7.86,52.908,6.143,61.422c0,2.049,0,4.102,0,6.147C1126.274,1992.614,1107.594,1972.389,1075.869,1965.215z"/>
<linearGradient id="SVGID_28_" gradientUnits="userSpaceOnUse" x1="31.6367" y1="1908.8657" x2="172.9131" y2="1908.8657">
	<stop  offset="0" style="stop-color:#36A9E1"/>
	<stop  offset="0.3459" style="stop-color:#257DC1"/>
	<stop  offset="0.7953" style="stop-color:#294898"/>
	<stop  offset="1" style="stop-color:#27348B"/>
</linearGradient>
<path fill-rule="evenodd" clip-rule="evenodd" fill="url(#SVGID_28_)" d="M50.063,1916.076
	c17.388-29.786,75.223-51.61,122.85-30.718c-47.675,13.807-102.312,53.238-141.276,55.282c8.841-3.434,14.98-9.575,18.427-18.425
	C50.063,1920.168,50.063,1918.121,50.063,1916.076z"/>
<linearGradient id="SVGID_29_" gradientUnits="userSpaceOnUse" x1="191.3438" y1="2027.7739" x2="394.0459" y2="2027.7739">
	<stop  offset="0" style="stop-color:#36A9E1"/>
	<stop  offset="0.3459" style="stop-color:#257DC1"/>
	<stop  offset="0.7953" style="stop-color:#294898"/>
	<stop  offset="1" style="stop-color:#27348B"/>
</linearGradient>
<path fill-rule="evenodd" clip-rule="evenodd" fill="url(#SVGID_29_)" d="M246.625,1946.785
	c27.07-13.886,35.435-46.465,67.566-55.281c8.775-2.395,10.359-7.372,18.431,0c19.9,92.708,44.645,180.585,61.424,276.417
	c-74.01-46.798-133.771-107.842-202.702-159.709C206.086,1984.054,231.877,1970.942,246.625,1946.785z"/>
<linearGradient id="SVGID_30_" gradientUnits="userSpaceOnUse" x1="172.9131" y1="1986.7114" x2="246.625" y2="1986.7114">
	<stop  offset="0" style="stop-color:#36A9E1"/>
	<stop  offset="0.3459" style="stop-color:#257DC1"/>
	<stop  offset="0.7953" style="stop-color:#294898"/>
	<stop  offset="1" style="stop-color:#27348B"/>
</linearGradient>
<path fill-rule="evenodd" clip-rule="evenodd" fill="url(#SVGID_30_)" d="M185.197,1995.927
	c30.063-6.797,36.432-37.295,61.428-49.143c-14.748,24.157-40.539,37.27-55.281,61.427c0.524,8.717,1.015,17.397-6.146,18.427
	c5.249-19.575-5.353-23.314-12.284-30.711C177.007,1995.927,181.108,1995.927,185.197,1995.927z"/>
<linearGradient id="SVGID_31_" gradientUnits="userSpaceOnUse" x1="405.2168" y1="2081.9224" x2="848.5947" y2="2081.9224">
	<stop  offset="0" style="stop-color:#36A9E1"/>
	<stop  offset="0.3459" style="stop-color:#257DC1"/>
	<stop  offset="0.7953" style="stop-color:#294898"/>
	<stop  offset="1" style="stop-color:#27348B"/>
</linearGradient>
<path fill-rule="evenodd" clip-rule="evenodd" fill="url(#SVGID_31_)" d="M535.327,2241.625c8.518,3.778,0.922,23.648,12.282,24.576
	c30.705-59.392,70.978-109.208,104.421-165.855c57.927-19.916,134.631-53.702,196.564-49.14c-4.758,1.376-12.115,0.169-12.281,6.143
	c-1.721,12.623-16.407,12.263-24.578,18.431c-37.386,24.03-74.381,48.463-104.418,79.85
	c-51.563,42.623-110.69,77.689-159.708,122.856c-4.09,0-8.19,0-12.282,0c-37.578-29.991-79.026-56.114-116.714-85.999
	c-2.612-11.719-17.55-11.114-12.279-30.713c31.693-95.25,67.245-186.647,104.421-276.416c2.054,0,4.093,0,6.146,0
	c0,8.189,0,16.383,0,24.572c3.884,20.674-7.928,57.053,6.139,67.565c0,14.333,0,28.67,0,42.998
	c3.979,28.783-8.033,73.555,6.143,92.144c0,8.188,0,16.383,0,24.566C533.184,2170.056,521.118,2218.984,535.327,2241.625z"/>
<linearGradient id="SVGID_32_" gradientUnits="userSpaceOnUse" x1="129.9209" y1="2143.6411" x2="418.6133" y2="2143.6411">
	<stop  offset="0" style="stop-color:#36A9E1"/>
	<stop  offset="0.3459" style="stop-color:#257DC1"/>
	<stop  offset="0.7953" style="stop-color:#294898"/>
	<stop  offset="1" style="stop-color:#27348B"/>
</linearGradient>
<path fill-rule="evenodd" clip-rule="evenodd" fill="url(#SVGID_32_)" d="M418.613,2192.487
	c-85.089-15.81-183.034,57.303-264.13,85.999c-12.832,2.603-16.267-4.214-24.563-6.145c0-2.048,0-4.097,0-6.14
	c4.978,1.165,6.111,6.156,12.286,6.14c23.993-72.241,28.595-163.869,42.99-245.703c7.161-1.029,6.671-9.71,6.146-18.427
	c68.931,51.867,128.692,112.911,202.702,159.709c4.98-1.172,6.116-6.164,12.288-6.146
	C401.063,2181.373,416.001,2180.768,418.613,2192.487z"/>
<linearGradient id="SVGID_33_" gradientUnits="userSpaceOnUse" x1="903.8799" y1="2115.7085" x2="1094.2969" y2="2115.7085">
	<stop  offset="0" style="stop-color:#36A9E1"/>
	<stop  offset="0.3459" style="stop-color:#257DC1"/>
	<stop  offset="0.7953" style="stop-color:#294898"/>
	<stop  offset="1" style="stop-color:#27348B"/>
</linearGradient>
<path fill-rule="evenodd" clip-rule="evenodd" fill="url(#SVGID_33_)" d="M1063.585,1965.215
	c-1.385,32.092,0.105,61.318,6.146,85.991c3.852,18.669-7.864,52.911,6.138,61.431c0,4.095,0,8.188,0,12.281
	c3.854,18.669-7.86,52.908,6.146,61.429c0,4.099,0,8.187,0,12.281c1.496,25.128-5.988,59.22,12.282,67.573
	c-65.616-1.521-129.853-117.762-190.417-104.428c2.168-8.073,10.813-9.663,12.282-18.425
	C972.448,2091.113,1006.734,2016.876,1063.585,1965.215z"/>
<linearGradient id="SVGID_34_" gradientUnits="userSpaceOnUse" x1="824.0225" y1="2115.7085" x2="1051.3066" y2="2115.7085">
	<stop  offset="0" style="stop-color:#36A9E1"/>
	<stop  offset="0.3459" style="stop-color:#257DC1"/>
	<stop  offset="0.7953" style="stop-color:#294898"/>
	<stop  offset="1" style="stop-color:#27348B"/>
</linearGradient>
<path fill-rule="evenodd" clip-rule="evenodd" fill="url(#SVGID_34_)" d="M903.88,2161.774
	c-26.467,34.966-52.079,70.772-79.857,104.428c0.14-59.288,33.169-138.799,36.858-214.995
	c48.906-43.231,127.125-57.149,190.426-85.991c-45.082,59.348-91.231,117.623-135.145,178.134
	C914.693,2152.111,906.048,2153.701,903.88,2161.774z"/>
<linearGradient id="SVGID_35_" gradientUnits="userSpaceOnUse" x1="1081.7197" y1="2232.4146" x2="1094.2969" y2="2232.4146">
	<stop  offset="0" style="stop-color:#36A9E1"/>
	<stop  offset="0.3459" style="stop-color:#257DC1"/>
	<stop  offset="0.7953" style="stop-color:#294898"/>
	<stop  offset="1" style="stop-color:#27348B"/>
</linearGradient>
<path fill-rule="evenodd" clip-rule="evenodd" fill="url(#SVGID_35_)" d="M1082.015,2198.628
	c17.861,4.662-5.573,50.624,12.282,55.281c0,4.099,0,8.19,0,12.292C1076.026,2257.848,1083.511,2223.756,1082.015,2198.628z"/>
<linearGradient id="SVGID_36_" gradientUnits="userSpaceOnUse" x1="1217.1514" y1="2217.4897" x2="1333.8564" y2="2217.4897">
	<stop  offset="0" style="stop-color:#36A9E1"/>
	<stop  offset="0.3459" style="stop-color:#257DC1"/>
	<stop  offset="0.7953" style="stop-color:#294898"/>
	<stop  offset="1" style="stop-color:#27348B"/>
</linearGradient>
<path fill-rule="evenodd" clip-rule="evenodd" fill="url(#SVGID_36_)" d="M1217.151,2266.202
	c45.11-6.73,71.601-83.532,116.705-110.572c-6.812,29.858-91.92,82.492-98.276,110.572c-1.7,7.516,18.101,5.715,24.566,6.14
	c-0.769,13.567-26.054,2.608-36.854,6.145C1222.125,2273.51,1217.125,2272.358,1217.151,2266.202z"/>
<linearGradient id="SVGID_37_" gradientUnits="userSpaceOnUse" x1="707.3174" y1="2115.7046" x2="811.7354" y2="2115.7046">
	<stop  offset="0" style="stop-color:#36A9E1"/>
	<stop  offset="0.3459" style="stop-color:#257DC1"/>
	<stop  offset="0.7953" style="stop-color:#294898"/>
	<stop  offset="1" style="stop-color:#27348B"/>
</linearGradient>
<path fill-rule="evenodd" clip-rule="evenodd" fill="url(#SVGID_37_)" d="M707.317,2155.629
	c30.037-31.387,67.032-55.819,104.418-79.85C780.304,2105.763,743.141,2130.023,707.317,2155.629z"/>
<linearGradient id="SVGID_38_" gradientUnits="userSpaceOnUse" x1="1192.5791" y1="2205.7056" x2="1346.4131" y2="2205.7056">
	<stop  offset="0" style="stop-color:#36A9E1"/>
	<stop  offset="0.3459" style="stop-color:#257DC1"/>
	<stop  offset="0.7953" style="stop-color:#294898"/>
	<stop  offset="1" style="stop-color:#27348B"/>
</linearGradient>
<path fill-rule="evenodd" clip-rule="evenodd" fill="url(#SVGID_38_)" d="M1333.856,2155.629
	c-45.104,27.04-71.595,103.842-116.705,110.572c-1.872-30.889-16.999-48.526-24.572-73.715
	c50.223-9.163,114.773-62.579,153.563-42.996c0.528,8.714,1.015,17.394-6.14,18.43
	C1342.601,2156.102,1335.788,2145.747,1333.856,2155.629z"/>
<linearGradient id="SVGID_39_" gradientUnits="userSpaceOnUse" x1="658.1797" y1="1692.4634" x2="830.165" y2="1692.4634">
	<stop  offset="0" style="stop-color:#36A9E1"/>
	<stop  offset="0.3459" style="stop-color:#257DC1"/>
	<stop  offset="0.7953" style="stop-color:#294898"/>
	<stop  offset="1" style="stop-color:#27348B"/>
</linearGradient>
<path fill-rule="evenodd" clip-rule="evenodd" fill="url(#SVGID_39_)" d="M658.18,1719.509
	c34.667-43.588,98.512-70.412,171.985-42.998c0,2.046,0,4.099,0,6.144C767.008,1689.103,721.343,1713.058,658.18,1719.509z"/>
<linearGradient id="SVGID_40_" gradientUnits="userSpaceOnUse" x1="953.0205" y1="1891.1685" x2="1060.6465" y2="1891.1685">
	<stop  offset="0" style="stop-color:#36A9E1"/>
	<stop  offset="0.3459" style="stop-color:#257DC1"/>
	<stop  offset="0.7953" style="stop-color:#294898"/>
	<stop  offset="1" style="stop-color:#27348B"/>
</linearGradient>
<path fill-rule="evenodd" clip-rule="evenodd" fill="url(#SVGID_40_)" d="M1045.152,1836.218
	c0.31,38.723,23.889,86.532,12.287,116.709c-36.193-39.563-70.722-80.792-104.419-122.851
	C982.953,1832.898,1024.97,1823.641,1045.152,1836.218z"/>
<linearGradient id="SVGID_41_" gradientUnits="userSpaceOnUse" x1="332.6221" y1="2020.4966" x2="510.7549" y2="2020.4966">
	<stop  offset="0" style="stop-color:#36A9E1"/>
	<stop  offset="0.3459" style="stop-color:#257DC1"/>
	<stop  offset="0.7953" style="stop-color:#294898"/>
	<stop  offset="1" style="stop-color:#27348B"/>
</linearGradient>
<path fill-rule="evenodd" clip-rule="evenodd" fill="url(#SVGID_41_)" d="M510.755,1885.358
	c-37.176,89.769-72.728,181.166-104.421,276.416c-6.172-0.018-7.308,4.975-12.288,6.146
	c-16.779-95.832-41.523-183.709-61.424-276.417c0-4.102,0-8.191,0-12.286c24.725-3.941,65.314,7.987,79.855-6.144
	c14.331,0,28.659,0,42.998,0c18.426,0,36.85,0,55.279,0C510.755,1877.167,510.755,1881.26,510.755,1885.358z"/>
<linearGradient id="SVGID_42_" gradientUnits="userSpaceOnUse" x1="1154.7646" y1="1959.0688" x2="1162.8301" y2="1959.0688">
	<stop  offset="0" style="stop-color:#36A9E1"/>
	<stop  offset="0.3459" style="stop-color:#257DC1"/>
	<stop  offset="0.7953" style="stop-color:#294898"/>
	<stop  offset="1" style="stop-color:#27348B"/>
</linearGradient>
<path fill-rule="evenodd" clip-rule="evenodd" fill="url(#SVGID_42_)" d="M1155.725,1928.358c14.011,8.52,2.289,42.757,6.143,61.422
	C1147.864,1981.266,1159.575,1947.02,1155.725,1928.358z"/>
<linearGradient id="SVGID_43_" gradientUnits="userSpaceOnUse" x1="1063.1064" y1="2109.563" x2="1192.5791" y2="2109.563">
	<stop  offset="0" style="stop-color:#36A9E1"/>
	<stop  offset="0.3459" style="stop-color:#257DC1"/>
	<stop  offset="0.7953" style="stop-color:#294898"/>
	<stop  offset="1" style="stop-color:#27348B"/>
</linearGradient>
<path fill-rule="evenodd" clip-rule="evenodd" fill="url(#SVGID_43_)" d="M1069.731,2051.207
	c-6.041-24.673-7.531-53.899-6.146-85.991c4.092,0,8.196,0,12.284,0c31.725,7.174,50.405,27.398,85.998,30.712
	c3.723,10.603,29.14-0.476,30.712,12.284c-52.439-11.096-47.992,74.072-61.425,122.854c-13.859,50.32-30.939,92.978-36.857,122.845
	c-17.855-4.657,5.579-50.619-12.282-55.281c0-4.095,0-8.183,0-12.281c-3.85-18.67,7.867-52.91-6.146-61.429
	c0-4.094,0-8.187,0-12.281C1072.019,2093.965,1083.734,2059.728,1069.731,2051.207z"/>
<linearGradient id="SVGID_44_" gradientUnits="userSpaceOnUse" x1="817.8877" y1="2142.856" x2="1272.4365" y2="2142.856">
	<stop  offset="0" style="stop-color:#36A9E1"/>
	<stop  offset="0.3459" style="stop-color:#257DC1"/>
	<stop  offset="0.7953" style="stop-color:#294898"/>
	<stop  offset="1" style="stop-color:#27348B"/>
</linearGradient>
<path fill-rule="evenodd" clip-rule="evenodd" fill="url(#SVGID_44_)" d="M1094.297,2253.91
	c5.918-29.867,22.998-72.524,36.857-122.845c13.433-48.781,8.985-133.949,61.425-122.854c23.73-1.203,45.264-0.22,61.429,6.144
	c-5.644,7.011,18.411,6.854,18.429,6.139c-0.889,41.064-78.352,124.496-79.857,171.993c7.573,25.188,22.7,42.826,24.572,73.715
	c-0.026,6.156,4.974,7.309,6.141,12.284c-135.133,0-270.271,0-405.404,0c-0.025-6.163,4.976-7.315,6.135-12.284
	c27.778-33.655,53.391-69.462,79.857-104.428c60.564-13.334,124.801,102.906,190.417,104.428
	C1094.297,2262.1,1094.297,2258.008,1094.297,2253.91z"/>
<linearGradient id="SVGID_45_" gradientUnits="userSpaceOnUse" x1="12.2324" y1="2005.1382" x2="20.3242" y2="2005.1382">
	<stop  offset="0" style="stop-color:#36A9E1"/>
	<stop  offset="0.3459" style="stop-color:#257DC1"/>
	<stop  offset="0.7953" style="stop-color:#294898"/>
	<stop  offset="1" style="stop-color:#27348B"/>
</linearGradient>
<path fill-rule="evenodd" clip-rule="evenodd" fill="url(#SVGID_45_)" d="M19.351,1971.358c-3.887,20.674,7.913,57.05-6.139,67.561
	C17.09,2018.247,5.29,1981.869,19.351,1971.358z"/>
<linearGradient id="SVGID_46_" gradientUnits="userSpaceOnUse" x1="1068.7686" y1="2081.9224" x2="1076.832" y2="2081.9224">
	<stop  offset="0" style="stop-color:#36A9E1"/>
	<stop  offset="0.3459" style="stop-color:#257DC1"/>
	<stop  offset="0.7953" style="stop-color:#294898"/>
	<stop  offset="1" style="stop-color:#27348B"/>
</linearGradient>
<path fill-rule="evenodd" clip-rule="evenodd" fill="url(#SVGID_46_)" d="M1069.731,2051.207
	c14.003,8.521,2.287,42.759,6.138,61.431C1061.867,2104.118,1073.583,2069.875,1069.731,2051.207z"/>
<linearGradient id="SVGID_47_" gradientUnits="userSpaceOnUse" x1="6.0859" y1="2088.063" x2="14.1865" y2="2088.063">
	<stop  offset="0" style="stop-color:#36A9E1"/>
	<stop  offset="0.3459" style="stop-color:#257DC1"/>
	<stop  offset="0.7953" style="stop-color:#294898"/>
	<stop  offset="1" style="stop-color:#27348B"/>
</linearGradient>
<path fill-rule="evenodd" clip-rule="evenodd" fill="url(#SVGID_47_)" d="M13.212,2051.207c-3.926,22.7,7.949,61.193-6.152,73.712
	C10.987,2102.222-0.89,2063.727,13.212,2051.207z"/>
<linearGradient id="SVGID_48_" gradientUnits="userSpaceOnUse" x1="1074.9102" y1="2155.6333" x2="1082.9775" y2="2155.6333">
	<stop  offset="0" style="stop-color:#36A9E1"/>
	<stop  offset="0.3459" style="stop-color:#257DC1"/>
	<stop  offset="0.7953" style="stop-color:#294898"/>
	<stop  offset="1" style="stop-color:#27348B"/>
</linearGradient>
<path fill-rule="evenodd" clip-rule="evenodd" fill="url(#SVGID_48_)" d="M1075.869,2124.918
	c14.013,8.519,2.296,42.759,6.146,61.429C1068.009,2177.827,1079.723,2143.587,1075.869,2124.918z"/>
<linearGradient id="SVGID_49_" gradientUnits="userSpaceOnUse" x1="1235.4766" y1="2212.5249" x2="1340.5859" y2="2212.5249">
	<stop  offset="0" style="stop-color:#36A9E1"/>
	<stop  offset="0.3459" style="stop-color:#257DC1"/>
	<stop  offset="0.7953" style="stop-color:#294898"/>
	<stop  offset="1" style="stop-color:#27348B"/>
</linearGradient>
<path fill-rule="evenodd" clip-rule="evenodd" fill="url(#SVGID_49_)" d="M1340.003,2167.92
	c-3.357,37.583-13.209,68.686-24.567,98.281c-20.215,0.256-30.583,10.371-55.289,6.14c-6.466-0.425-26.267,1.376-24.566-6.14
	c6.356-28.08,91.465-80.714,98.276-110.572C1335.788,2145.747,1342.601,2156.102,1340.003,2167.92z"/>
<linearGradient id="SVGID_50_" gradientUnits="userSpaceOnUse" x1="0" y1="2112.6343" x2="186.6064" y2="2112.6343">
	<stop  offset="0" style="stop-color:#36A9E1"/>
	<stop  offset="0.3459" style="stop-color:#257DC1"/>
	<stop  offset="0.7953" style="stop-color:#294898"/>
	<stop  offset="1" style="stop-color:#27348B"/>
</linearGradient>
<path fill-rule="evenodd" clip-rule="evenodd" fill="url(#SVGID_50_)" d="M19.351,1952.927c55.261,10.265,96.926,34.116,153.563,43
	c6.932,7.396,17.533,11.136,12.284,30.711c-14.396,81.834-18.997,173.462-42.99,245.703c-6.175,0.017-7.309-4.975-12.286-6.14
	c-46.939-28.831-88.299-63.226-128.995-98.281c-3.565-19.943,4.181-28.583,6.134-43.002c14.102-12.519,2.227-51.012,6.152-73.712
	c0-4.095,0-8.185,0-12.288c14.052-10.511,2.252-46.887,6.139-67.561C19.351,1965.215,19.351,1959.067,19.351,1952.927z"/>
<linearGradient id="SVGID_51_" gradientUnits="userSpaceOnUse" x1="154.4834" y1="2234.3794" x2="535.3271" y2="2234.3794">
	<stop  offset="0" style="stop-color:#36A9E1"/>
	<stop  offset="0.3459" style="stop-color:#257DC1"/>
	<stop  offset="0.7953" style="stop-color:#294898"/>
	<stop  offset="1" style="stop-color:#27348B"/>
</linearGradient>
<path fill-rule="evenodd" clip-rule="evenodd" fill="url(#SVGID_51_)" d="M154.483,2278.486
	c81.096-28.696,179.041-101.809,264.13-85.999c37.688,29.885,79.136,56.008,116.714,85.999
	C408.382,2278.486,281.43,2278.486,154.483,2278.486z"/>
</svg>
